<svg xmlns="http://www.w3.org/2000/svg" width="884" height="935" fill="none" viewBox="0 0 884 935">
  <g clip-path="url(#a)">
    <path fill="#000" d="M672.003 292.567c7.829-.431 16.971.578 23.488 5.324 6.097 4.441 9.832 11.984 10.859 19.351.076.573.138 1.148.185 1.725a34.523 34.523 0 0 1 .117 3.468 34.603 34.603 0 0 1-.219 3.462 35.505 35.505 0 0 1-.958 5.112 34.818 34.818 0 0 1-1.047 3.308 36.01 36.01 0 0 1-2.16 4.731 35.67 35.67 0 0 1-2.826 4.367c-5.14 6.662-11.884 9.884-20.145 10.894-6.668.538-13.154-.678-19.022-3.941-6.853-3.811-11.961-9.95-14.062-17.567a30.955 30.955 0 0 1-.687-3.012 30.458 30.458 0 0 1-.357-7.699 30.277 30.277 0 0 1 .407-3.063 29.84 29.84 0 0 1 .715-3.005 30.001 30.001 0 0 1 1.018-2.918 29.698 29.698 0 0 1 1.308-2.799c.241-.456.494-.904.759-1.346 5.204-8.875 12.848-13.815 22.627-16.392Z"/>
    <path fill="#FEFEFE" d="M682.611 298.196c3.802.177 7.135 1.013 10.358 3.115 4.957 3.233 8.022 8.744 9.166 14.456 1.594 7.965-.006 16.84-4.57 23.591-3.968 5.869-9.464 9.266-16.32 10.65-4.523.147-8.617-.844-12.274-3.627-5.036-3.832-7.401-10.084-8.205-16.183-1.051-7.97.99-17.064 6.019-23.418 4.066-5.138 9.385-7.909 15.826-8.584Z"/>
    <path fill="#000" d="M681.341 308.527c1.612-.062 3.079.1 4.612.646 3.259 1.163 5.77 3.466 7.114 6.658 1.844 4.38 1.72 9.827-.272 14.133-2.313 5-5.979 7.45-10.928 9.329-2.215.324-4.543.336-6.622-.579-2.889-1.271-4.818-3.614-5.807-6.583-1.652-4.953-.873-10.78 1.571-15.338 2.385-4.449 5.554-6.868 10.332-8.266Z"/>
    <path fill="#FEFEFE" d="M678.559 314.774c.915.425 1.888.812 2.488 1.672.934 1.337 1.473 3.173 1.175 4.767l-.751-.109c-1.54-1.597-3.412-2.306-5.037-3.765.217-1.431 1.044-1.686 2.125-2.565Zm-5.868 6.658c2.589.633 6.149 1.219 7.497 3.852.713 1.392.246 2.484-.202 3.845-.927.17-1.86.372-2.809.329-1.492-.066-3.004-.599-3.882-1.883-1.278-1.868-.904-4.05-.604-6.143Z"/>
    <path fill="#000" d="M283.168.701c.237-.01.473-.031.711-.033 4.233-.033 8.237.71 12.009 2.71 8.683 4.6 21.884 19.585 29.267 26.92 12.334-5.591 23.802-11.733 37.609-7 8.775 3.009 20.08 9.927 28.626 14.292a2941.817 2941.817 0 0 1 60.981 31.378A7302.002 7302.002 0 0 1 639.91 170.012c21.978 12.212 43.612 25.054 65.614 37.229l77.312 42.838c7.234 4.015 14.343 8.222 21.539 12.3 3.488 1.977 8.155 3.961 11.156 6.591 5.711 5.004 62.696 89.141 66.352 97.113 2.817 6.142.826 15.311-1.592 21.37-1.676 4.198-4.12 8.533-7.895 11.166-6.299 4.392-15.633 6.72-22.807 9.451-16.613 6.325-33.597 12.332-49.897 19.408-1.396 9.561-1.783 19.155-2.213 28.794 4.753 4.723 10.199 8.75 14.792 13.642 10.615 11.304 9.252 27.631 13.191 41.796l.236.834c5.591 1.941 16.868 3.71 20.248 8.671 2.304 3.382 1.874 8.819 1.113 12.613-1.239 6.179-3.596 21.794-9.39 25.028-3.049 1.702-10.993-1.896-14.242-2.898-1.935 5.481-3.389 11.115-5.467 16.559-5.212 13.653-13.875 24.947-23.374 35.865 8.316 11.926 18.972 22.621 28.367 33.726 5.389 6.371 12.83 16.722 18.672 22.046 1.734 1.58 4.206 2.704 6.212 3.928 4.708 2.871 7.178 7.06 8.355 12.398.072.325.137.653.197.981 1.992 10.941-1.556 23.568-8.695 32.048-3.702 4.398-8.736 8.006-10.182 13.838-3.614 14.582 3.246 31.189-5.52 44.691-3.853 5.934-10.235 10.97-16.569 14.017-6.695 3.221-13.969 5.643-20.87 8.41a2799.888 2799.888 0 0 0-37.044 15.256 11278.408 11278.408 0 0 1-155.31 64.655l-104.317 43.662c-8.737 3.637-30.866 14.216-38.806 15.654-5.394.978-10.502-.093-15.324-2.559-6.54-3.344-12.828-7.793-19.065-11.697-12.069-7.555-24.066-15.134-35.982-22.931a11025.654 11025.654 0 0 1-109.884-73.496 16236.744 16236.744 0 0 1-138.697-92.553c-15.914-10.612-32.635-20.297-48.242-31.325-22.648-16.003-12.293-34.391-16.145-56.6l-.142-.8c-3.972-3.701-8.824-6.427-13.052-9.837-12.915-10.415-17.361-48.01-19.086-64.777-10.35-8.833-29.55-17.948-36.99-27.818-7.643-10.141-5.837-25.6-4.114-37.301C3.92 491.371 8.76 470.96 14.228 461.76c.815-1.37 2.403-2.411 3.667-3.329 5.53-4.02 15.566-22.067 20.458-28.829 5.302-7.331 11.74-16.163 18.838-21.746 2.745-2.16 6.058-3.508 8.804-5.65 6.846-5.338 11.492-10.668 20.502-12.12-3.239-2.293-5.964-4.692-8.454-7.785-2.54-3.817-3.738-7.132-3.68-11.765.144-11.426 6.28-22.621 14.203-30.531 7.857-7.845 14.536-11.273 25.79-11.202.538-8.623 2.084-16.939 2.19-25.658-6.482-10.863-14.688-21.026-21.979-31.369l-48.695-68.718c-5.366-7.609-15.704-19.727-19.613-27.224-2.174-4.168-3.389-8.548-3.268-13.285.237-9.332 7.501-18.319 13.918-24.54 9.314-9.029 21.543-16.25 34.887-15.968 4.094.086 6.801 1.205 10.364 3.094 10.102 5.357 19.874 11.517 29.835 17.153 32.318 18.287 64.223 37.006 96.176 55.912l174.971 103.219c7.344 4.332 14.909 8.287 22.211 12.69 10.754 6.485 21.271 13.355 32.152 19.632 13.165 7.594 55.556 29.928 63.821 38.702.279 1.967.418 4.23 1.109 6.102 3.981 10.778 15.629 24.095 23.8 31.761 22.972 21.553 53.701 31.328 84.778 30.181 40.733-1.505 76.931-21.55 104.284-51.042 19.771-21.316 38.639-50.004 37.359-80.157-.185-4.374-.692-11.515-2.807-15.312-4.473-8.035-20.118-22.605-27.172-30.146-16.393-17.525-32.138-36.227-49.777-52.51.305 9.293.148 18.074-2.385 27.11-3.359 11.982-9.232 23.525-15.704 34.107-21.265 34.769-51.643 60.367-86.867 80.249 4.819 7.019 10.433 13.517 15.762 20.152l25.83 32.251c5.344 6.72 11.948 13.836 15.75 21.526l-.798.717.909.272c-.366.512-.714 1.025-1.194 1.441-4.499 3.899-16.893 3.611-22.51 3.139-7.581-.637-18.078-1.987-24.544-6.328-6.2-4.165-15.678-18.232-20.706-24.547l-26.308-32.791c-4.174-5.172-8.833-9.847-13.059-14.944-5.083-6.131-5.348-12.453-4.641-19.994-10.759 5.514-21.789 10.842-33.036 15.291-.111-.089-.223-.177-.333-.267-4.025-3.308-36.216-36.733-37.802-39.698-1.888-3.531-1.917-8.093-2.336-12.025-9.607 3.131-18.568 8.594-28.168 11.965-1.215-.633-2.451-1.392-3.507-2.269-5.997-4.985-11.523-11.072-17.291-16.396-6.026-5.564-12.723-10.748-18.382-16.647-6.937-7.228-6.755-12.199-6.602-21.662-9.887 4.214-19.168 9.655-29.461 12.931-2.956-1.886-5.677-4.039-8.346-6.31-5.931-5.047-30.049-25.424-32.647-30.379-1.844-3.516-1.969-7.701-2.286-11.577-7.747 3.875-15.665 8.477-23.855 11.28-6.577-3.935-12.582-9.591-18.49-14.457-7.027-5.788-14.2-11.408-21.186-17.243-6.815-5.693-8.933-9.957-9.74-18.733-8.047 3.424-15.898 8.695-24.5 10.489-9.672-6.626-17.922-15.66-26.791-23.318-4.271-3.688-9.08-6.421-13.475-9.889-5.252-4.145-8.728-9.874-9.385-16.582-2.13-21.735 23.289-55.56 37.015-71.54C205.611 38.962 245.244 3.6 283.168.701Z"/>
    <path fill="#FEFEFE" d="M403.804 499.261c2.163 1.774 3.636 5.292 5.001 7.719-1.404.013-2.403.06-3.683-.63-1.12-1.797-.776-4.419-1.201-6.525l-.117-.564ZM259.066 664.308c1.505.744 2.795 1.393 4.038 2.533.808 1.871.028 4.885.013 6.971l-.244.284c-1.967-1.79-3.14-7.134-3.807-9.788Zm49.415-227.238c1.523.453 3.146 2.76 4.276 3.949l-.06.555c-.277-.138-.556-.272-.831-.414-1.49-.773-2.187-1.037-3.886-.975-.149.005-.297.015-.446.023-1.077.249-2.187.544-3.285.671-1.078.125-1.941.19-2.77-.55 1.467-2.058 4.687-2.707 7.002-3.259Zm-2.212 261.831c.715.741.875 1.538.905 2.556.076 2.577-.211 6.718-1.975 8.708-.455-.546-1.097-1.226-1.374-1.878-1.192-2.806 1.277-6.877 2.444-9.386Zm95.395 67.863c1.314.686 1.345.578 1.826 1.962-.548 2.752-2.66 4.405-4.632 6.216l-.869-.378-.4-1.11c.476-2.887 1.943-4.763 4.075-6.69ZM127.659 312.821c1.97 5.147 1.747 14.135.129 19.353-1.789-3.384-1.182-15.483-.129-19.353Zm166.837 405.712c3.324-.498 7.799 1.207 11.083 2.034.864 1.674.423 4.268.379 6.16-3.945-2.388-7.534-5.669-11.462-8.194Zm467.945-433.374 2.121 1.25c.427.626.76 1.198.91 1.953.466 2.341-.24 5.2-1.568 7.158-1.702-.907-2.73-1.28-3.611-3.076-.135-2.483 1.241-5.008 2.148-7.285Zm31.721-1.407c-1.193-1.658-1.746-3.635-1.647-5.696.069-1.438.794-2.991 2.009-3.807 1.625-1.092 3.332-.862 5.124-.47.363 2.546.089 4.93-1.568 7.002-1.095 1.37-2.376 2.183-3.918 2.971ZM58.484 149.992c.62-1.015 1.302-2.011 2.266-2.731 1.866-1.394 4.134-2.255 6.475-1.893 2.049.316 2.829 1.218 3.968 2.787-2.006 2.088-4.408 3.644-7.386 3.69-2.163.034-3.585-.666-5.323-1.853Zm34.028 248.556c2.261 1.688 5.043 2.36 6.97 4.448l-.11.783c-2.986.91-7.741.061-10.85-.237l-9.662-.287c4.482-1.752 9.162-2.91 13.652-4.707Zm19.29-32.696.284.274c1.411 3.146-6.659 21.365-8.234 25.643-.484-.403-.599-.687-.874-1.241.247-7.883 4.916-17.888 8.824-24.676Zm66.899 51.805c1.108.67 1.237.636 1.668 1.834-.912 6.474-5.459 14.006-8.785 19.564l-.895.115c-.76-3.425 6.04-18.399 8.012-21.513Zm150.476 333.627c2.939.446 4.936 1.728 7.326 3.359-.879 1.039-1.701 2.109-2.393 3.284-.767 1.301-1.091 2.344-.724 3.809 1.155.958 2.012 1.424 3.415 1.96.73-.197 1.253-.37 2.018-.24.156.027.307.075.461.113-.179.287-.417.705-.661.932-1.2 1.118-2.96.576-4.459.435-.503.39-.996.775-1.465 1.206-.11.101-.218.205-.327.307-.57-.617-.564-.489-.845-1.131-1.399-3.186-3.738-10.851-2.346-14.034ZM82.693 405.704c5.218-.384 10.092-.162 15.282.505-.682 1.767-1.191 4.32-2.751 5.463l-1.344-.406c-6.515-2.571-13.377-3.51-20.28-4.444 2.993-.623 6.054-.83 9.093-1.118Zm303.322-60.508c2.09-.247 4.271-.807 6.148.366.397.983.602 1.253.209 2.309-1.178 3.157-4.618 5.092-7.497 6.365-1.797.305-3.415.589-5.019-.56-1-.717-1.717-1.826-1.779-3.076-.062-1.25.555-2.426 1.351-3.347 1.758-2.036 4.115-1.873 6.587-2.057ZM138.331 579.405c3.907 1.596 7.055 4.246 9.136 7.911 3.19 5.616 5.338 15.002 3.571 21.306l-1.742.194c-1.294-2.676-1.452-6.828-2.123-9.802-1.574-6.977-5.039-13.617-8.842-19.609Zm596.758-309.64c2.017.432 21.751 11.862 23.829 13.555-.955 1.118-1.841 2.113-2.256 3.556-.092.32-.17.644-.255.966-.71.986-1.069 1.546-2.229 1.978-1.901-.898-17.023-17.459-19.089-20.055ZM318.528 745.884l.817.625c1.863 4.544 7.204 25.411 6.224 29.67l-1.443.632c-3.091-4.402-9.708-23.194-8.572-28.286.302-1.355 1.891-1.939 2.974-2.641Zm71.027-230c-.936.245-2.031.507-3.005.441-1.1-.074-1.894-.219-2.623-1.075l.59-.391c3.005-.166 5.009-.233 7.408-2.164 3.33-2.68 6.099-6.912 6.513-11.226.478-4.997-1.895-9.477-5.089-13.138-3.833-4.395-6.377-5.766-12.056-6.064 3.061-1.352 6.806-3.27 10.25-2.689 1.553.262 1.662.676 2.588 1.874 3.744 7.599 8.431 15.832 5.357 24.513-1.644 4.641-5.141 7.824-9.565 9.766-.122.054-.245.102-.368.153ZM11.65 503.748l7.142 5.426c-1.572 8.421-2.727 16.366-2.34 24.951l-.206 1.06c-.403-.217-.522-.248-.882-.628-6.667-7.04-4.425-22.044-3.715-30.809Zm212.181 135.768c1.752.967 3.642 2.061 5.224 3.29 7.794 6.057 9.513 26.529 10.408 35.954-3.724-1.866-8.417-21.07-10.018-25.544-1.664-4.649-3.746-9.131-5.614-13.7Z"/>
    <path fill="#FEFEFE" d="M303.18 429.506c1.145-.018 2.463-.068 3.502.517 1.223.69 1.245 1.418 1.571 2.665-1.669 1.236-4.619.652-6.771 2.084-3.24 2.155-5.26 5.77-5.878 9.567-.747 4.598.327 9.399 3.199 13.098 1.892 2.437 4.623 4.439 7.762 4.769 2.291.241 4.428-.606 6.127-2.128 5.35-4.791 3.016-9.642 3.252-15.745l.842.386c.953 1.308 1.98 2.642 2.442 4.217a11.043 11.043 0 0 1 .403 2.206 11.047 11.047 0 0 1-.047 2.242 10.878 10.878 0 0 1-.495 2.187 11.15 11.15 0 0 1-.924 2.043c-2.471 4.227-6.601 5.906-11.056 7.207-5.489-1.76-9.325-4.876-11.985-10.083-2.402-4.7-3.074-10.121-1.333-15.156 1.678-4.856 4.877-7.859 9.389-10.076Zm-22.327 285.797c3.778 2.67 24.561 17.551 26.243 19.776.749.991.989 2.03.763 3.234-1.878-.235-3.992-2.317-5.556-3.449a539.33 539.33 0 0 0-11.765-8.632c-6.537 1.685-10.18 2.227-16.781.381 2.541-3.684 4.846-7.442 7.096-11.31Z"/>
    <path fill="#000" d="M342.75 306c1.333-.024 2.697-.052 4.025.084 2.067.211 4.672 1.108 5.851 2.959.85 1.334 1.084 2.742.599 4.266-1.088 3.425-4.136 5.092-7.076 6.691-2.464.078-5.463.211-7.717-.93-1.718-.869-3.249-2.382-3.748-4.282a5.634 5.634 0 0 1-.17-1.131 5.216 5.216 0 0 1 .071-1.142 5.248 5.248 0 0 1 .548-1.622c.089-.169.186-.333.293-.492 1.595-2.406 4.567-3.874 7.324-4.401Z"/>
    <path fill="#FEFEFE" d="M342.742 309.56c2.285-.101 4.01-.169 5.977 1.127.758 1.301.734 1.19.364 2.652-1.185 1.431-2.506 1.936-4.183 2.669-2.742.052-4.423-.091-6.472-2.015-.418-1.342-.443-1.276.152-2.545 1.321-1.105 2.517-1.436 4.162-1.888ZM286.476 682.4c6.169 4.029 12.074 8.586 18 12.964-2.31 4.159-4.026 8.449-5.761 12.864a596.676 596.676 0 0 1-4.239 6.526c-3.127-10.567-5.061-21.676-8-32.354Zm55.634 75.447c5.834 5.682 24.613 16.534 32.329 21.537.555 3.245 1.23 6.288 2.244 9.421-5.306-2.38-29.816-19.5-34.112-23.976-.04-2.344-.24-4.65-.461-6.982Zm425.139-469.72c3.005 1.21 5.978 3.19 8.826 4.769-4.431 9.304-11.494 16.683-18.191 24.378-.521.104-.222.116-.864-.248-.039-7.813-.446-15.438-1.476-23.185 3.735 2.103 7.252 4.512 11.249 6.12l-.072-2.465c-.105-3.195.169-6.199.528-9.369Zm-553.846 80.981c1.467-.147 3.649-.598 5.004-.025 1.921.811 2.44 3.06 3.13 4.842-1.541-.178-3.117-.381-4.672-.356-3.614.058-6.521 1.362-8.921 4.071-2.862 3.229-4.027 7.839-3.628 12.081.373 3.975 2.079 7.196 5.23 9.654 2.865 2.235 6.583 3.538 10.231 2.891 1.969-.349 3.624-1.25 4.766-2.923 1.711-2.508 1.773-6.051 1.056-8.902-.865-3.432-2.905-6.678-6.075-8.393-2.883-1.56-5.721-1.352-8.751-.367-.168.054-.334.112-.502.169l-.304-.859c.602-.469.565-.462 1.319-.931 2.496-1.556 6.013-2.48 8.904-1.658 2.793.794 4.861 3.109 6.147 5.62 2.243 4.381 2.962 10.351 1.267 15.029-.912 2.517-2.521 4.722-5.031 5.808-2.568 1.111-5.568.592-8.088-.39-4.628-1.803-8.072-5.086-10.068-9.641a21.003 21.003 0 0 1-.778-2.029 21.118 21.118 0 0 1-.57-2.097 21.576 21.576 0 0 1 1.121-12.799c1.677-4.134 5.246-7.012 9.213-8.795Zm135.29 173.469c5.492.579 10.857 1.261 16.292 2.258a968.894 968.894 0 0 0-6.927 18.37c-1.222.273-2.673-1.441-3.707-2.224-3.28-2.484-7.055-3.828-11.018-4.76 2.266-4.382 3.863-8.954 5.36-13.644Zm-61.45 190.054c5.636 1.563 13.63 8.412 18.331 12.192 1.241 4.458 2.015 9.108 2.952 13.641l-3.609-2.212c-7.608-5.139-16.06-9.353-23.491-14.63 1.133-.002 2.026-.019 3.108-.375 1.451-2.643 1.986-5.707 2.709-8.616ZM117.763 345.97l.835.37c-4.183 7.22-8.904 14.546-12.493 22.057-1.196 2.505-6.191 16.742-6.913 17.489l-.866-.588a32.347 32.347 0 0 1-.913-1.6c-2.319-4.385-2.696-9.119-1.191-13.846 3.304-10.383 11.957-19.106 21.541-23.882ZM14.46 489.662c12.984 9.405 26.855 17.761 40.08 26.873-.572 2.092-.997 4.238-1.476 6.354-3.059.039-35.004-23.565-39.82-27.562l1.216-5.665Zm808.508 31.952c5.226 1.153 10.724 3.553 15.854 5.241l-4.897 19.537c-.196.831-.423 1.381-.88 2.102-3.459.692-8.923-2.689-12.104-4.165 1.13-7.575 1.658-15.074 2.027-22.715Zm-335.919 18.793c2.351 1.102 5.419 4.264 7.574 5.955-1.075 1.151-2.141 2.394-3.307 3.451-1.298 1.178-2.096 1.534-3.888 1.466-3.394-.128-6.545.916-9.431 2.693-8.91 5.485-13.43 16.71-15.656 26.438.08 1.292.163.652-.276 1.917-2.343-.934-4.026-4.781-5.26-6.941 6.774-19.571 12.807-24.872 30.244-34.979Z"/>
    <path fill="#FEFEFE" d="M108.837 338.553c3.013-.204 7.391.119 9.968 1.844l-.04.738c-2.233.565-4.32 1.361-6.325 2.507-12.048 6.89-19.024 18.72-22.568 31.745a14.63 14.63 0 0 1-1.086 3.173c-1.039.653-.964.662-2.163.424-.591-.567-1.056-1.08-1.383-1.845-2.28-5.333-.721-11.975 1.509-17.105a39.348 39.348 0 0 1 1.726-3.556 39.788 39.788 0 0 1 2.071-3.367 39.18 39.18 0 0 1 2.393-3.146 40.3 40.3 0 0 1 2.694-2.893 40.625 40.625 0 0 1 4.544-3.804 39.763 39.763 0 0 1 8.66-4.715ZM182.3 645.224c.184.194.388.37.55.582 3.891 5.068 12.485 39.306 13.285 46.294.625 5.465.423 10.872-.459 16.294-.845-.509-1.193-.791-1.788-1.593-10.46-14.093-14.638-44.732-11.588-61.577Zm-21.082-234.991c4.975 1.872 9.698 4.375 14.451 6.741-2.014 4.614-4.586 14.041-7.417 17.592-1.218 1.528-3.587 1.547-4.832 3.097-.494.615-.226 1.254-.167 1.985l-1.189.099c-4.639.777-9.21 1.924-13.787 2.997l12.941-32.511Zm-55.722 146.461c4.14 1.799 8.32 5.115 12.126 7.604-.147 1.066-.214 2.804-.741 3.734-.474.834-1.885 1.525-2.661 2.052-5.34 3.632-6.804 7.761-8.445 13.689-1.208-.583-1.434-1.592-3.024-2.005-.731.47-.912.417-1.237 1.286-2.3 6.159 1.045 18.448 4.055 24.014 1.675 3.099 3.059 3.667 6.303 4.747 2.35.782 3.197 3.419 4.253 5.491.775.677 1.326.976 2.313 1.217 1.271.31.762-.056 1.498.921-1.178 1.876-2.225 3.798-3.905 5.274-1.291.295-1.548.448-2.73-.329-4.808-3.161-11.109-19.185-12.594-24.637-4.275-15.694-3.219-28.975 4.789-43.058Zm91.849 33.529 9.864-1.479c8.721 5.382 16.972 11.734 25.258 17.768 3.35 2.438 6.869 5.566 10.516 7.455-.016 2.814-2.171 6.525-3.291 9.144-15.879-10.435-31.296-21.521-47.231-31.897 1.635-.299 3.263-.63 4.884-.991Zm246.624 181.878c.054.421.003.922-.152 1.312-1.589 3.984-4.723 8.204-6.892 11.949-5.499 9.491-11.069 18.912-15.546 28.943l-1.18-5.433c-2.524-9.05-4.401-18.342-6.494-27.5l30.264-9.271ZM335.991 521.123c4.643 2.989 9.275 5.859 13.127 9.856-1.805 2.952-5.081 6.348-5.786 9.74l.855 1.186c.028 3.554-3.334 10.356-5.118 13.635-.401.737-1.034 2.156-1.786 2.574-1.331.74-7.842 1.469-10.038 2.094-3.511 1.024-6.567 4.779-9.156 7.294 6.801-15.09 12.437-30.769 17.902-46.379Zm58.687 260.469c4.8.802 9.633 1.152 14.498 1.049 3.41 11.19 5.395 23.014 8.439 34.354-2.513-2.065-5.211-3.932-7.841-5.846-5.899-3.994-21.184-13.159-24.691-18.364-1.617-2.4-2.356-6.21-3.196-9.015 4.433-.218 8.51-1.066 12.791-2.178Zm-84.785-207.016c5.217-.361 10.029 1.662 13.985 5.003 6.622 5.592 10.08 14.421 10.625 22.931.59 9.206-2.006 17.266-8.05 24.22.787-1.302 1.589-2.621 2.213-4.011 3.163-7.042 2.601-16.589-.252-23.67-2.175-5.395-5.959-10.353-11.497-12.558-4.362-1.737-8.86-1.244-13.089.631-5.295 2.347-9.811 6.785-11.805 12.271-2.293 6.305-.791 12.875 2 18.738 2.457 5.162 5.849 8.97 11.304 10.887.544.095.517.101 1.171.154 4.192.344 8.123-.822 11.25-3.688 5.609-5.14 8.087-17.21 5.372-24.49-.946-2.536-3.997-6.503-3.95-9.07 2.17 1.346 4.62 6.384 5.595 8.749 2.234 5.415.735 14.722-1.604 19.767-2.22 4.788-6.021 9.239-11.188 10.883-3.412 1.085-7.006.719-10.163-.953-5.465-2.895-9.241-9.308-10.987-15.107-2.721-9.044-2.507-18.944 2.108-27.33 3.726-6.772 9.596-11.223 16.962-13.357Zm-69.115 76.355c3.917 1.899 9.358 5.24 11.491 9.088 6.409 11.561 4.638 35.13.822 47.444-3.347 10.797-8.186 20.078-18.519 25.459-1.519.436-2.971.68-4.558.705-1.68.026-2.696-.356-3.864-1.533.866-3.958 7.832-6.243 10.656-9.147 1.565-1.61 2.943-4.003 4.061-5.954 11.803-20.582 5.709-44.717-.089-66.062ZM54.34 198.037c4.076 1.489 12.429 7.143 15.424 10.167 4.168 4.209 6.849 9.942 10.309 14.738 6.702 9.289 13.128 18.685 19.703 28.058 5.017 7.154 10.215 14.14 14.786 21.596 5.224 8.522 9.825 17.698 14.538 26.532-.128-.054-.264-.096-.386-.164-5.549-3.079-71.823-93.82-74.374-100.927Zm286.264 573.527c1.153.196 70.876 47.369 77.48 52.236l-1.35 7.834-4.207-2.722c-18.21-12.564-36.775-24.567-55.192-36.822-6.98-4.646-20.282-12.033-25.393-17.952 3.162-.526 5.776-1.094 8.662-2.574Z"/>
    <path fill="#FEFEFE" d="M121.78 577.01c2.294-.009 4.408.585 6.271 1.947 7.406 5.418 11.166 17.539 12.631 26.187.621 3.664 2.16 10.362-.127 13.588-1.732.636-3.614.375-5.426.283-1.502-.405-2.97-.837-4.361-1.545-6.945-3.532-13.012-12.084-15.127-19.492-1.456-5.099-1.838-12.153.876-16.899 1.401-2.45 2.544-3.312 5.263-4.069Zm361.203-46.288c.78-.161 1.178-.124 1.952-.025 1.255 1.685 1.366 4.064 1.705 6.094-20.57 8.587-40.454 18.572-61.254 26.659-1.707-1.64-2.593-8.747-3.192-11.361 7.973-4.983 17.684-8.384 26.336-12.058 6.536-2.776 13.262-6.135 20.072-8.145l.93-.268c3.981-1.163 9.166-.338 13.451-.896Zm-160.622-19.37c3.229 2.667 6.828 4.893 10.085 7.563-6.007 17.549-13.426 34.482-19.676 51.912-3.885-.03-6.834.817-10.311 2.415-2.289 1.264-4.355 2.622-6.459 4.161 3.006-9.284 6.935-18.155 10.568-27.197a1625.987 1625.987 0 0 1 15.793-38.854Zm-121.429 17.494c.346 11.209.503 48.114 8.317 55.82 3.579 3.53 8.352 6.137 12.534 8.912a1910.04 1910.04 0 0 1 16.006 10.904c2.42 1.653 5.719 3.379 7.63 5.539l-.624 1.34-.816.283-2.332-1.481c-2.244-2.684-32.161-23.173-35.449-24.787-3.075 1.422-5.819 1.961-9.149 2.381-2.283.224-4.585.527-6.875.644-2.969-1.536-5.573-3.118-8.106-5.329 3.195-16.653 13.438-37.487 18.864-54.226Z"/>
    <path fill="#000" d="m199.155 538.794.537.502c1.284 4.783 1.162 10.448 1.535 15.4.511 6.789 1.3 13.291 2.63 19.967.43 2.154 2.546 8.142 1.583 9.884-1.196-1.692-2.157-3.352-2.946-5.273-3.669-8.941-7.035-31.64-3.339-40.48Z"/>
    <path fill="#FEFEFE" d="M451.533 93.91c4.155 3.23 7.854 8.09 11.506 11.97 5.718 6.074 11.627 11.963 17.318 18.062-9.26 5.315-18.625 9.876-27.591 15.746-6.08 4.062-11.911 8.536-17.795 12.877 9.221-18.892 19.882-36.813 16.562-58.655Zm340.603 440.224c7.247 2.568 14.64 7.574 21.414 11.269-3.287 13.645-7.529 25.887-13.995 38.371-1.82 3.228-5.834 10.842-9.386 11.998-1.919-2.78 1.281-55.482 1.967-61.638ZM379.474 55.703c4.758 2.551 22.337 22.403 27.807 28.056a302.718 302.718 0 0 0-30.538 18.332 501.194 501.194 0 0 0-17.393 12.507c10.918-18.466 21.043-36.793 20.124-58.895Zm-75.061-39.295c3.056 2.169 5.868 5.545 8.554 8.184 6.926 6.802 13.731 13.887 21.13 20.174-11.227 5.468-21.415 11.746-31.696 18.825-5.737 4.212-11.452 8.445-17.351 12.427 1.967-4.695 5.259-9.066 7.824-13.477 9.225-15.865 13.127-27.866 11.539-46.133ZM21.42 468.542c13.645 7.636 26.897 17.75 40.038 26.355-3.246 6.41-5.425 11.746-6.227 18.912-7.12-6.121-14.901-11.422-22.773-16.512-5.783-3.74-12.092-7.359-17.18-12.032 1.635-5.874 3.253-11.31 6.143-16.723Zm112.637-14.962c4.606-.432 8.987.447 13.028 2.732 6.699 3.789 12.048 11.509 13.821 18.981 1.909 8.046.029 17.757-4.524 24.646-4.214 6.374-9.041 8.352-16.195 9.841 5.108-2.525 10.188-4.567 13.601-9.433 4.623-6.593 4.361-14.108 2.997-21.634-.754 5.476-1.934 14.965-5.455 19.427l-.29-.06c.254-2.11 1.123-4.299 1.699-6.356 1.727-6.157.061-11.631-2.397-17.265.485 4.911.261 9.283-.066 14.199l-.605 2.587c.092-.766.118-1.493.171-2.261.115-1.679.315-3.296.149-4.98-.618-6.283-3.322-12.691-8.353-16.671-4.962-3.926-10.211-4.47-16.239-3.654-.519.334-1.015.667-1.503 1.047-5.695 4.431-9.596 10.596-10.527 17.826-1.103 8.569 1.143 15.474 6.306 22.278-5.793-3.683-11.119-8.296-16.425-12.637 3.733-7.324 5.42-15.362 9.691-22.484 5.076-8.466 11.437-13.764 21.116-16.129ZM528.3 134.846c4.3 3.086 8.131 8.046 11.781 11.924a814.999 814.999 0 0 0 16.652 17.225c-11.708 5.009-22.28 11.271-32.861 18.296-5.722 3.949-11.124 8.335-16.923 12.184 11.43-20.117 22.176-35.121 21.351-59.629ZM22.304 511.114a568.58 568.58 0 0 0 30.508 20.542c-1.603 8.758-3.239 17.451-4.336 26.292l-.157 1.992c-1.754-.348-19.117-13.394-21.58-15.555-1.288-1.13-2.5-2.389-3.452-3.821-5.288-7.961-2.602-20.707-.983-29.45Z"/>
    <path fill="#FEFEFE" d="M146.42 394.513a85.054 85.054 0 0 1 13.468 8.096c-5.531 14.754-11.046 29.403-16.894 44.049 4.481 3.731 9.021 7.745 12.719 12.268.848 1.037 1.74 1.93 1.603 3.295l-4.721-5.887c-2.925-2.524-5.784-4.533-9.549-5.605-7.196-2.05-14.112.049-20.382 3.626 9.144-19.449 15.394-40.067 23.756-59.842Zm451.257-222.237c3.628 2.915 6.819 6.633 10.053 9.989a833.804 833.804 0 0 1 19.719 21.129 185.28 185.28 0 0 0-34.886 21.745c-5.715 4.47-11.252 9.202-16.886 13.778 2.243-5.125 5.601-9.961 8.307-14.874 6.708-12.182 12.732-26.192 13.775-40.215.288-3.878-.064-7.677-.082-11.552Zm-539.1 428.039c5.749 2.227 11.774 7.05 16.911 10.471 6.511 4.337 13.104 8.59 19.447 13.172 12.836 9.272 25.883 19.611 40.199 26.478.166 4.811.243 9.624.231 14.438-.323-.136-.65-.263-.963-.421-9.603-4.846-19.329-13.003-28.456-19.023-8.758-5.776-31.793-18.754-37.604-24.894-4.871-5.148-7.483-13.669-9.765-20.221Zm737.147-131.513c5.011 2.852 12.797 9.379 15.044 14.809 1.834 4.433 2.752 9.537 3.432 14.261 1.103 7.666 3.12 35.785.444 42.226l-.867-.008c-6.995-3.988-14.256-7.517-21.257-11.515-.192-8.844.721-17.896 1.183-26.741.574-10.985.805-22.101 2.021-33.032Zm-696.56 28.337c7.357 3.96 14.588 9.736 21.543 14.426 7.598 5.123 15.495 9.737 23.177 14.728-.627 4.249-3.302 23.682-5.312 26.035l-1.328-.411c-15.871-10.23-31.325-21.197-46.841-31.96 2.821-7.659 5.37-15.384 8.761-22.818Zm61.26 113.412c7.807-.427 14.365.657 20.861 5.266 17.129 12.157 25.656 39.122 29.055 58.783 2.976 17.221 3.456 40.687-7.23 55.622-3.174 4.437-7.472 7.777-12.992 8.524-8.801 1.19-16.767-4.247-23.286-9.445 5.344 2.578 9.994 4.917 16.113 4.502.14-.033.282-.06.421-.098 6.134-1.644 10.769-5.818 13.935-11.219 9.544-16.276 8.435-38.702 3.925-56.299-4.327-16.883-14.264-36.337-29.856-45.406-4.98-2.897-10.773-4.511-16.459-2.867-7.313 2.114-10.96 7.724-14.446 13.954a48.208 48.208 0 0 1 2.823-7.199c3.82-7.785 9.196-11.376 17.136-14.118Zm80.854-110.49c4.174-.458 8.193.017 11.923 2.039 6.059 3.283 10.102 10.133 11.844 16.666 1.744 6.54 1.147 13.813-2.387 19.672-2.796 4.636-6.199 6.812-11.326 8.053-4.101.237-7.903-.138-11.665-1.938-5.907-2.826-10.044-8.134-12.105-14.275a25.517 25.517 0 0 1-.697-2.49 27.352 27.352 0 0 1-.45-2.547 26.279 26.279 0 0 1-.202-3.871 26.525 26.525 0 0 1 .367-3.859 27.327 27.327 0 0 1 .558-2.525 26.316 26.316 0 0 1 1.842-4.826c2.652-5.201 6.791-8.395 12.298-10.099Z"/>
    <path fill="#000" d="M242.437 501.598c4.153-.187 8.023 1.115 11.274 3.71 5.599 4.468 9.007 12.372 9.683 19.417.529 5.517-.402 12.226-4.136 16.519-2.843 3.268-5.735 4.055-9.902 4.395-3.256-.044-6.448-.697-9.373-2.152a21.944 21.944 0 0 1-1.026-.55c-.337-.191-.67-.391-.997-.601a21.437 21.437 0 0 1-.965-.651 21.935 21.935 0 0 1-1.825-1.445 22.019 22.019 0 0 1-1.669-1.623 22.788 22.788 0 0 1-3.905-5.76 22.484 22.484 0 0 1-1.252-3.257c-1.842-6.288-1.291-14.017 2.101-19.704 2.816-4.721 6.763-7.058 11.992-8.298Z"/>
    <path fill="#FEFEFE" d="m724.346 482.023.334.523c-5.828 6.794-11.227 13.605-17.741 19.814-19.038 18.146-45.717 33.089-72.087 36.494-20.403 2.633-36.314-2.631-52.373-14.969-.817-.68-1.562-1.446-2.325-2.186 2.272-.973 13.107.756 16.411.893a132.08 132.08 0 0 0 19.876-.667c.02 2.675-.234 6.923 1.983 8.919 3.87 3.486 20.326 4.826 26.022 4.562 4.966-5.604 7.273-13.29 11.826-19.312 23.948-9.517 45.879-21.025 68.074-34.071ZM176.987 274.446c5.592 3.534 14.012 6.738 18.362 11.617 6.043 6.778 10.973 20.191 15.174 28.67 9.509 19.195 18.617 38.748 28.63 57.673l7.245 14.002c-1.92 1.922-3.974 3.861-5.466 6.143-2.552 3.905-5.07 12.922-10.393 12.954-.801-.001-1.6-.027-2.399-.078.158-.709.356-1.166.749-1.781 1.446-2.268 2.68-4.494 3.487-7.08 1.118-3.581.593-7.784-.618-11.288-2.184-6.322-5.607-12.063-8.663-17.983a1486.9 1486.9 0 0 1-9.427-19.026c-12.083-24.611-23.573-49.746-36.681-73.823Zm8.674 149.743c7.631 3.862 14.997 8.883 22.406 13.218-3.19 8.927-7.294 17.63-10.799 26.449-13.412 33.75-27.854 67.137-40.779 101.062l-4.526-2.989c-2.696-1.657-8.928-4.701-9.959-7.659.632-1.607 3.617-2.854 5.026-3.942 2.938-2.268 2.943-4.308 3.425-7.713l4.829-1.359c3.038-5.019 5.447-10.658 8.092-15.906 3.32-6.587 6.906-13.038 9.766-19.845 2.018-.498 4.884-.92 6.558-2.181 3.233-2.434 5.216-13.719 6.056-17.771 3.215-15.494-1.108-29.192-9.585-42.139-1.217-.617-1.563-.551-2.947-.478.226-.972.641-1.068 1.522-1.589.78-.46 1.636-.717 2.325-1.346 2.374-2.168 6.716-12.279 8.59-15.812Zm125.796 275.404c4.972 2.143 10.159 6.888 14.667 10.001a1766.608 1766.608 0 0 0 28.59 19.205c2.362 5.253 18.291 39.653 18.611 42.507.05.452-.105.903-.157 1.355-4.772-4.106-10.481-7.575-15.677-11.132a1997.697 1997.697 0 0 0-29.377-19.839c-5.869-3.891-12.13-7.644-17.376-12.359.011-9.9.487-19.838.719-29.738Zm62.805-338.853c2.274 1.752 4.001 6.753 5.377 9.37 3.441 6.542 7.663 12.763 11.902 18.81 5.677 8.095 11.79 15.863 17.499 23.929 14.602 20.627 29.05 41.276 45.142 60.798-1.111 3.492-2.07 7.091-2.667 10.709-.399 2.418.145 7.239-1.006 9.125l-.769-.723a7682.626 7682.626 0 0 1-55.141-80.884c-8.558-12.461-19.053-24.965-26.73-37.598a194.24 194.24 0 0 1 6.393-13.536Zm-56.466 146.581c1.805 6.163-22.197 56.29-24.941 66.124-.484 1.732-.579 2.634.335 4.224.434.755.714.792.478 1.644-.377 1.361-1.87 3.311-2.605 4.608-3.603 6.361-5.873 12.008-6.286 19.402-.529 9.495 2.966 20.336 9.416 27.396 5.068 5.548 10.145 7.11 17.364 7.531 3.62 3.247 7.48 6.179 11.326 9.149-2.937 9.014-7.025 17.699-11.076 26.255l-.636-.26c-.068.378-.133.757-.196 1.137l-2.081-2.285c-13.728-11.121-29.028-20.355-43.299-30.771 3.38-10.814 7.706-21.365 11.8-31.923a3225.794 3225.794 0 0 1 19.14-48.632c7.159-17.898 13.17-36.061 21.261-53.599Zm-57.809 232.073c2.542.998 5.486 3.631 7.815 5.217 8.078 5.501 27.561 19.919 35.242 23.127 1.398.584 2.974.539 4.463.528 2.918 2.134 5.788 4.095 8.966 5.823 1.194 2.453 2.495 5.821 4.968 7.226 2.606 1.481 5.522 1.046 8.266.282 8.207 3.849 15.38 9.599 22.908 14.603l35.36 23.266c8.677 5.709 17.276 11.789 26.477 16.621-.479 5.992.113 11.323 1.48 17.158l-3.637-2.435-162.023-106.622c3.441-1.315 6.57-2.886 9.715-4.794ZM85.46 638.232c4.001 2.168 7.783 5.197 11.57 7.75l22.479 15.129c5.481 3.751 10.916 7.875 16.713 11.112 3.529 18.432 9.751 34.806 19.197 51.03-2.92-1.026-5.892-3.132-8.584-4.673-9.873-5.655-19.328-11.796-28.911-17.907-6.641-4.235-13.498-8.125-20.131-12.372-3.238-2.073-6.374-4.461-8.273-7.891-4.521-8.167-1.464-30.368-4.06-42.178ZM72.579 412.093c7.528-.743 15.123.059 21.77 3.837-8.019 23.902-19.874 49.8-29.783 73.177l-7.887-4.946c-8.961-5.993-17.996-11.788-26.691-18.172 6.299-13.875 24.264-41.294 36.121-50.438 1.951-1.504 4.233-2.464 6.47-3.458Zm139.836 27.732 15.001 8.436c-4.2 8.586-7.452 17.743-10.911 26.652-7.397 19.052-14.177 38.198-21.053 57.434-5.655 15.819-12.557 31.199-18.14 47.081l-.637.283a680.982 680.982 0 0 0-16.284-12.278 3018.058 3018.058 0 0 1 34.839-86.457c5.715-13.731 10.983-27.624 17.185-41.151Zm-90.77-63.582c4.903 4.295 10.396 7.856 15.839 11.414-8.586 18.265-16.418 40.41-23.593 59.482-5.051 13.427-10.888 26.561-16.189 39.893-3.94 9.906-7.288 20.036-11.355 29.892-5.745-2.71-11.416-7.177-16.209-11.333a8027.627 8027.627 0 0 1 51.507-129.348Zm177.837 118.56c4.871 2.97 9.467 6.484 14.114 9.792-3.847 12.365-9.455 24.415-14.319 36.422l-21.132 53.401c-4.216 10.634-8.059 21.42-12.255 32.07-1.5 3.808-2.764 8.243-4.794 11.781l-.847-.39c-5.4-3.641-10.804-7.257-16.011-11.173 8.613-17.72 15.489-36.759 22.749-55.073 5.519-13.922 11.613-27.643 17.31-41.498 4.25-10.338 9.478-26.166 15.185-35.332ZM58.485 524.504c5.436 4.85 11.984 8.853 18.048 12.872l24.605 16.261c-6.927 12.276-8.985 24.664-7.219 38.682 1.911 15.166 8.7 29.218 20.851 38.642-.097.185-.357.218-.547.304-18.171-13.912-37.826-26.239-56.857-38.968-7.808-21.269-6.919-46.685 1.119-67.793Zm309.967 20.529c9.028 3.45 18.336 10.815 26.117 16.576-10.977 29.702-23.353 58.845-35.091 88.243-2.15 5.383-15.51 41.503-17.777 44.01l-.939-.557c-6.506-4.907-12.945-9.986-19.701-14.542 4.559-10.897 10.18-21.611 15.726-32.037a43.841 43.841 0 0 0 2.019-.93c10.782-5.31 18.131-13.64 21.883-24.968 5.653-17.065 2.557-31.097-5.202-46.75 5.249-9.353 8.88-19.172 12.965-29.045Zm-212.755 79.466c7.381.475 13.208 3.951 18.655 8.668-2.654 18.634 1.682 46.184 9.18 63.163 2.766 6.265 6.544 11.829 10.133 17.627-.537 1.807-1.157 3.533-2.05 5.201-2.495 4.658-6.334 6.651-11.181 8.097-1.759-.059-3.562-.246-5.23-.838-11.341-4.024-18.953-17.877-23.462-28.173-7.975-18.21-14.437-43.091-6.775-62.32 2.168-5.441 5.365-9.069 10.73-11.425Zm-32.995-266.758c4.779 1.469 19.575 13.022 24.795 16.535l84.292 57.211c5.398 3.639 11.237 6.539 16.669 10.111 6.479 4.26 12.768 8.788 19.29 12.993 34.886 22.49 70.487 43.827 105.361 66.342l28.568 18.453c6.35 4.096 13.289 8.051 18.959 13.048.802 3.265 2.884 10.499 1.154 13.388l-1.04-.434c-17.843-12.283-35.61-24.725-53.793-36.509-20.623-13.365-41.693-26.058-62.241-39.534l-113.74-75.988c-4.271-2.801-8.737-5.288-13.022-8.064a2091.054 2091.054 0 0 1-59.277-39.62c.921-3.047 1.983-5.459 4.025-7.932Zm278.184 200.054c6.53 4.475 12.601 9.117 19.798 12.552a7085.746 7085.746 0 0 1-56.189 139.445c-2.887-.13-16.168-10.616-19.56-13.058 7.386-13.816 12.451-29.641 18.425-44.175 12.896-31.37 25.987-62.869 37.526-94.764Zm-61.998-188.122c6.111 4.087 12.111 8.152 18.767 11.32 3.789 5.947 6.868 12.354 10.242 18.544 8.307 15.241 16.07 30.743 24.308 46.01a2065.506 2065.506 0 0 0 13.723 24.705c2.381 4.2 5.427 8.399 7.189 12.886 1.742 7.36.52 15.092 1.732 22.575 1.647-6.739 3.574-17.619.38-24.041-.677-1.363-1.175-2.435-1.352-3.978 1.411-.096 4.232 1.844 5.736 2.453 10.665 4.32 16.395 18.234 23.35 26.829 6.384 7.89 13.29 15.44 21.306 21.693-14.416 5.998-29.245 11.664-43.305 18.43-2.259-1.771-6.676-4.311-7.157-7.131-.911.43-1.26.77-2.283.669.059-8.384.246-16.702-.056-25.087l.533-.047.159 1.929c.095-.129.225-.237.286-.385.381-.926.375-1.625.95-2.532.128-.201.273-.391.41-.587-.883-8.288-7.329-15.636-11.324-22.75-2.081-3.707-3.86-7.613-5.684-11.451a4140.015 4140.015 0 0 0-41.964-80.618c-5.134-9.809-11.247-19.467-15.946-29.436Z"/>
    <path fill="#000" d="m411.468 515.55.533-.047.159 1.929c.095-.129.225-.237.286-.385.381-.926.375-1.625.95-2.532.128-.201.273-.391.41-.587a97.927 97.927 0 0 1 .001 26.04c-.911.43-1.26.77-2.283.669.059-8.384.246-16.702-.056-25.087Z"/>
    <path fill="#FEFEFE" d="M63.93 509.497c4.85 2.685 9.351 6.116 13.942 9.218a2836.013 2836.013 0 0 1 23.725 16.072l85.903 59.578a11228.226 11228.226 0 0 0 93.437 64.815l65.532 44.323c5.373 3.665 11.014 6.911 16.317 10.676l-3.316 7.942c-.483 1.16-.234 1.232-1.458 1.769-4.292-1.148-58.655-39.735-67.535-45.716-6.307-4.248-12.845-8.186-19.089-12.514-6.645-4.606-12.977-9.658-19.595-14.305a6577.596 6577.596 0 0 0-109.758-76.937l-49.809-33.465c-7.543-5.005-22.994-13.993-28.698-20.191-.109-3.776.145-7.499.402-11.265Zm351.089-158.472a2775.11 2775.11 0 0 1 29.728 18.942c8.235 5.299 18.425 10.724 25.141 17.831-7.983 22.985-15.133 46.29-22.774 69.392-4.099-1.676-48.832-66.223-54.268-74.032a37.279 37.279 0 0 0 14.276-10.132c5.486-6.29 8.468-13.593 7.897-22.001Zm355.729 90.353c.712 1.116.844 1.53.518 2.844-1.769 7.14-6.543 14.578-10.329 20.879-18.707 31.132-44.668 60.262-76.126 78.851-26.55 15.688-59.804 25.574-90.437 17.534-17.744-4.657-31.887-14.572-41.14-30.461-2.433-4.558-4.016-9.234-5.358-14.212 6.219.207 12.607.888 18.747 1.884 12.312 15.421 26.328 24.284 46.172 26.85 18.235 2.358 38.861-.898 55.768-8.169 19.721-8.48 40.827-25.616 54.62-42.067 5.808-6.927 9.619-14.93 15.05-22.006 4.206-5.479 10.586-10.054 15.553-14.936 5.443-5.349 10.439-12.112 16.514-16.666.147-.111.299-.217.448-.325ZM259.162 323.946c2.751 1.453 5.443 3.063 8.109 4.668 4.171 2.509 9.903 5.402 12.944 9.212 3.452 4.325 7.097 14.006 9.691 19.323l19.527 39.341c4.615 9.195 10.395 17.842 14.834 27.084 1.725 3.591 2.899 7.027 3.863 10.893l2.24-2.722-.067-1.369c1.329.038 30.55 17.71 34.364 19.886 3.847 2.195 8.017 4.042 11.74 6.416 1.465.934 2.833 2.001 4.005 3.289 4.108 4.518 7.419 10.586 10.286 15.965-8.108 3.073-14.705 5.826-18.529 14.258-2.018 4.45-2.665 9.581-.878 14.221 2.051 5.328 8.617 11.713 14.055 13.749 1.564.586 3.155.355 4.776.201 7.035-1.867 13.35-5.455 19.789-8.752.448 2.005.842 4.01 1.557 5.941.302 8.385.115 16.703.056 25.087-10.367-6.36-20.315-13.467-30.597-19.984-12.434-7.882-25.262-15.19-37.182-23.84-.689-9.707-.331-21.794-4.546-30.68-2.769-5.837-8.356-9.122-12.495-13.81-4.719-5.345-9.793-12.357-13.275-18.56-5.533-9.856-9.796-20.364-14.64-30.56-12.669-26.664-24.804-53.693-39.627-79.257Z"/>
    <path fill="#000" d="m328.13 434.467 2.24-2.722c1.571 6.458 3.669 15.465 2.687 22.043l-.37.457c-3.121-5.2-2.996-13.824-4.557-19.778Z"/>
    <path fill="#FEFEFE" d="m488.182 699.117.403.11c.032.293.136.588.094.88-.069.483-37.306 61.51-40.316 66.521-7.258 1.865-40.291 13.131-45.476 11.488l-.239-.692c1.344-2.765 3.573-4.964 4.848-7.74.833-1.814.975-3.097.317-4.978-1.377-1.324-2.977-1.892-4.873-2.007-2.046-.123-3.783.653-5.271 2.029-3.608 3.338-4.634 7.658-4.842 12.323-2.187.854-4.44 1.424-6.703 2.035l-1.841-.161c-1.515-1.253-19.026-41.606-20.977-46.537l63.87-17.177c20.293-5.573 40.472-11.447 61.006-16.094ZM233.027 458.031c5.22 4.788 12.652 8.211 18.768 11.859 5.286 3.153 10.322 6.616 15.299 10.231l-2.136 3.87c-3.34 4.96-6.054 10.305-8.633 15.691-6.844-2.861-13.347-4.703-20.599-1.659-5.44 2.282-9.168 6.779-11.256 12.21-3.193 8.308-2.262 16.917 1.428 24.842 3.163 6.795 8.536 13.335 15.701 16.058 4.867 1.85 10.373 1.9 15.073-.455 5.329-2.671 8.885-8.085 10.588-13.659 2.865-9.377 1.263-18.957-3.335-27.469-1.482-2.744-3.183-5.335-4.959-7.895 2.114-4.455 5.467-9.58 6.898-14.233 1.175-1.707 2.036-3.688 2.979-5.536 6.094 3.577 12.163 7.127 17.982 11.142-2.793 6.371-6.079 13.279-6.819 20.276-.524 4.945-.024 9.733-1.603 14.539-3.924 11.939-9.507 23.228-14.234 34.846-5.705 14.019-10.731 28.403-17.039 42.162-.358-.17-.717-.338-1.066-.525-6.796-3.646-13.101-8.995-19.483-13.368-4.454-3.052-9.786-5.48-13.592-9.337-1.711-1.734-2.534-3.664-3.206-5.978-3.594-12.377-2.579-27.029-3.067-39.788-.253-6.595-1.366-14.158-.285-20.618.699-4.184 2.982-9.785 5.151-13.422.916-1.536 1.508-1.794 3.23-2.192.258-.059.517-.108.776-.162 2.658-2.315 15.096-35.584 17.439-41.43Zm542.754-154.7.543.585c1.04 6.453-1.341 15.107-2.957 21.336-12.922 49.818-52.081 96.34-96.302 121.907-30.968 17.903-63.611 23.249-98.349 13.938-28.063-7.521-51.066-24.388-65.665-49.708-2.862-5.329-4.941-10.946-6.98-16.623 7.769 9.84 16.321 19.197 26.323 26.816 26.612 20.274 61.536 26.473 94.136 21.934 49.549-6.898 93.969-43.689 117.952-86.547 2.495-4.458 4.913-9.086 6.665-13.894 2.214-6.073 3.395-12.871 6.847-18.389 4.797-7.669 12.289-14.039 17.787-21.355ZM346.927 30.106c4.685-.4 9.3.002 13.665 1.862 8.635 3.679 16.878 8.577 25.207 12.906l49.68 25.812A5649.593 5649.593 0 0 1 656.244 190.16l80.754 45.293c14.095 7.799 32.253 16.268 44.982 25.456-5.181 8.553-5.741 15.965-5.996 25.693-7.251-3.3-14.242-7.421-21.252-11.214-10.422-5.667-24.235-12.088-33.199-19.697-5.731-4.865-10.752-10.979-15.918-16.462-9.009-9.679-18.2-19.18-27.575-28.504-4.657-4.628-9.728-10.581-15.749-13.383-9.317-4.335-21.205.843-30.086 4.138-4.05-3.561-7.675-7.865-11.391-11.784a664.776 664.776 0 0 0-18.018-18.349c-4.018-3.938-8.12-8.335-13.101-11.055-8.708-4.755-19.621-1.023-28.426 1.512-10.116-9.583-34.053-37.515-44.698-42.62-9.601-4.604-22.331.251-31.6 3.518-7.115-8.22-36.588-39.878-44.769-43.868-8.384-4.088-20.224.48-28.375 3.222-8.726-7.708-16.673-16.787-24.722-25.221-5.047-5.289-10.142-11.488-16.487-15.24-9.414-5.567-22.44-1.092-32.243 1.373a442.72 442.72 0 0 1-7.617-6.391c4.981-2.64 10.636-5.296 16.169-6.472ZM36.535 159.429c1.742-.072 3.092-.085 4.633.842 6.937 4.172 13.671 8.721 20.61 12.913l149.831 89.572a8013.176 8013.176 0 0 1 127.993 75.873c10.34 6.291 21.074 11.957 31.264 18.492-2.075 4.42-4.164 8.796-6.505 13.085-.918 1.099-1.112 1.414-2.434 1.901-5.827-1.809-11.873-6.536-17.176-9.639l-45.098-26.787L91.785 212.434 57.25 191.53c-6.298-3.858-14.232-7.672-19.37-12.996-2.755-2.855-5.631-7.393-5.416-11.533.19-3.66 1.36-5.274 4.071-7.572Zm205.251 584.664c.812.216.554.082 1.237.504 14.026 8.662 27.426 18.386 41.033 27.677 13.836 9.446 27.967 18.599 41.945 27.852l73.726 48.139c6.475 4.269 13.149 8.282 19.532 12.683 3.019 2.082 7.463 4.993 9.548 8.008 7.991 11.554 1.984 26.88 5.201 39.618.046.182.098.363.146.544-9.258-6.096-19.039-11.534-28.366-17.586-15.806-9.841-31.222-20.511-46.821-30.697l-101.809-67.09-38.145-24.944c-7.67-4.971-15.92-9.552-22.831-15.557 15.138-2.003 30.754-5.559 45.604-9.151ZM97.765 226.08c4.527 2.46 9.642 4.993 13.153 8.856 4.534 4.988 7.735 12.003 11.02 17.89a2575.292 2575.292 0 0 1 25.302 47.099c3.654 6.923 7.095 14.14 10.994 20.912.849 1.474 2.196 3.854 3.599 4.799 1.121.754 7.003 1.614 9.193 2.598 5.953 2.673 33.608 14.487 36.7 18.051 4.25 4.9 6.832 13.117 9.584 19.098-5.213.173-9.245 1.55-12.933 5.458-4.266 4.52-6.117 11.019-5.774 17.14.338 6.028 2.6 11.931 7.15 16.027 2.971 2.674 7.792 5.386 11.924 5.118 3.129-.204 5.745-1.451 8.553-2.694.74-.328.527-.203 1.531-.137l.379-.868c.799.051 1.598.077 2.399.078 5.323-.032 7.841-9.049 10.393-12.954 1.492-2.282 3.546-4.221 5.466-6.143l-7.245-14.002 2.319-1.376c4.387 1.455 9.25 7.987 13.593 10.57 11.851 7.05 24.814 13.176 37.327 18.975 4.534 7.868 8.796 16.591 12.008 25.088-5.113 1.062-8.728 2.969-11.679 7.462-3.422 5.211-4.539 12.035-3.22 18.1 1.214 5.579 4.494 10.868 9.411 13.897a19.155 19.155 0 0 0 2.574 1.3 19.5 19.5 0 0 0 2.742.896 18.986 18.986 0 0 0 3.806.53 19.28 19.28 0 0 0 3.835-.248 18.756 18.756 0 0 0 1.879-.413c5.744-1.605 10.509-6.08 16.102-8.271 9.078 11.079 9.576 21.816 10.253 35.635-15.263-8.748-30.023-18.51-44.772-28.089-14.675-9.53-29.388-18.915-43.939-28.633l-120.117-80.674 5.216.414c3.756-7.909 5.772-16.953 10.406-24.362 1.281 2.263 2.309 3.762 4.386 5.38 4.367 3.401 10.022 17.569 12.473 23-1.219 3.253-3.501 7.982-2.565 11.481.988-.117 1.252-.427 1.873-1.191 1.061-1.304 1.697-3.168 2.358-4.707 1.313 4.236 3.236 13.302 7.161 15.519 1.117-.154 1.365-.139 2.123-1.066 1.07-1.307 1.919-3.496 1.672-5.183-1.589-10.869-14.152-27.902-18.655-38.922 2.166-2.201 8.466-7.286 8.471-10.353l-.969-.551c-3.805 2.142-7.509 6.163-10.868 9.041-6.084-7.22-11.031-20.27-15.5-28.95L97.765 226.08Z"/>
    <path fill="#000" d="M250.008 395.373c.79.59 1.156 1.023 1.379 2.022 2.069 9.288 3.658 25.53-2.041 33.6-.952 1.348-1.611 1.461-3.178 1.774-.708-.591-1.423-1.235-1.994-1.961-5.015-6.38 5.127-17.135 6.216-23.534.67-3.941-1.022-7.941-.382-11.901Zm-10.855-22.967 2.319-1.376.38.94c2.439 5.867 10.74 15.486 8.768 21.985-1.16.373-1.47-.787-2.437-.311-1.89.929-9.109 11.797-12.357 14.603-2.705-.584-5.428-1.104-8.065-1.952l.379-.868c.799.051 1.598.077 2.399.078 5.323-.032 7.841-9.049 10.393-12.954 1.492-2.282 3.546-4.221 5.466-6.143l-7.245-14.002Z"/>
    <path fill="#FEFEFE" d="M284.587 6.73c4.279.06 8.199.995 11.223 4.207 3.864 4.105 5.218 10.1 5.149 15.583-.351 27.947-32.159 65.096-51.372 83.933-19.968 19.578-52.437 44.772-81.317 44.524-4.046-.635-7.672-1.555-10.948-4.194-3.461-2.788-5.204-6.784-5.579-11.152-1.738-20.244 23.329-53.657 36.255-68.845 20.55-24.145 64.345-61.494 96.589-64.056Zm293.168 155.456c.142-.017.283-.043.426-.051 4.109-.227 8.264 1.041 11.231 3.955 3.658 3.591 4.742 9.599 4.644 14.533-.128 6.447-2.049 12.706-4.094 18.767-9.534 28.263-28.976 53.787-50.361 74.283-19.36 18.555-50.667 41.848-78.222 41.255-4.376-.621-8.791-1.435-12.456-4.103-3.283-2.39-4.858-6.11-5.344-10.069-2.116-17.242 18.579-48.372 29.282-61.879 21.167-26.714 46.341-51.626 76.973-67.169 8.794-4.463 18.047-8.371 27.921-9.522ZM357.29 43.19c.142-.013.283-.028.424-.04 4.471-.353 8.966 1.048 12.296 4.096 3.757 3.438 5.142 8.265 5.35 13.215.253 6.03-1.367 12.626-3.21 18.322-7.853 24.276-24.252 43.484-41.323 61.847-21.533 23.162-55.743 53.086-88.627 54.278-4.56-.442-8.992-1.665-12.674-4.51-3.555-2.745-5.623-6.684-6.153-11.119-1.987-16.645 19.011-48.157 29.605-61.388C276.948 87.955 317.5 47.616 357.29 43.19Zm73.757 38.528c4.17.078 8.096 1.114 11.288 3.92 3.951 3.473 5.812 9.18 6.137 14.297 1.734 27.304-24.298 59.247-41.856 78.492-21.223 23.263-59.917 53.851-91.876 55.356-4.468-.261-8.972-1.188-12.609-3.954-3.197-2.431-4.979-5.799-5.36-9.782-2.01-20.994 25.672-58.01 39.016-73.946 20.784-24.821 61.741-61.43 95.26-64.383Zm30.846 471.376.109.087c.252 1.764-3.173 6.088-4.141 7.935-2.346 4.48-4.038 9.169-5.45 14.014 5.125 16.703 16.903 17.632 28.807 27.543l.417.354c2.181 13.03 3.691 26.224 5.395 39.326 2.034 15.631 4.209 31.421 5.446 47.135-31.334 9.956-63.568 17.55-95.227 26.454a2227.996 2227.996 0 0 0-33.837 8.798c6.278-12.612 10.698-26.448 16.136-39.486 16.102-38.603 31.1-77.575 46.641-116.397 4.516-2.663 9.717-4.586 14.523-6.712 7.024-3.106 13.955-6.434 21.181-9.051Zm41.374-431.444c.035-.005.07-.013.105-.015 5.556-.424 10.454-.241 14.834 3.702 4.035 3.633 5.851 8.527 6.08 13.873 1.122 26.202-26.635 60.609-43.74 79.254-20.547 22.396-57.511 55.306-89.143 56.699-5.23.089-10.132-.167-14.638-3.202-3.993-2.689-6.229-6.807-6.947-11.508-2.513-16.448 13.264-40.62 22.69-53.95 23.959-33.882 68.266-77.605 110.759-84.853Zm147.609 78.533c.029-.005.059-.014.089-.016 4.739-.45 8.568-.351 12.361 2.981 3.816 3.353 5.698 7.786 6.103 12.78 2.038 25.116-20.427 60.32-36.469 79.144-18.284 21.457-47.326 46.138-73.971 56.039-7.509 2.79-14.889 4.223-22.856 4.854-4.768-.295-9.592-1.047-13.546-3.951-3.585-2.633-5.523-6.531-6.038-10.9-2.116-17.939 19.625-49.284 30.56-63.37 22.063-28.419 66.948-72.906 103.767-77.561Zm-615.495-48.53c6.605-9.291 19.043-18.642 30.447-20.686 4.14-.742 7.486.541 11.082 2.481 6.081 3.28 11.915 7.165 17.836 10.728l30.561 18.325c17.542 10.66 35.428 20.859 53.076 31.361l162.668 96.275 88.491 52.35c20.143 11.685 40.971 22.8 60.238 35.879-2.778 2.495-4.828 4.678-6.574 8.028-4.086 7.838-6.276 17.124-9.009 25.51-2.695 8.274-5.616 16.483-8.221 24.784-3.417 10.889-6.5 21.89-10.312 32.65l-5.527-8.304c4.808-13.299 8.85-26.881 13.289-40.308 2.993-9.055 6.647-18.121 9.073-27.32.599-2.274 1.301-5.003.895-7.327-1.863-2.82-4.623-4.948-7.344-6.905-15.687-11.282-32.776-20.794-48.781-31.642-9.043-6.129-18.517-12.012-27.375-18.371-8.811-6.326-17.14-13.081-26.319-18.926a6620.601 6620.601 0 0 0-210.366-126.429c-18.045-10.627-35.885-21.576-54.038-32.022-8.797-5.063-19.307-12.739-29.269-14.908-3.821-.831-7.912-.513-11.265 1.624-3.124 1.992-5.391 5.435-6.014 9.086-.504 2.959.109 6.053 1.938 8.467 1.528 2.015 3.525 3.163 6.037 3.444 1.838.205 4.673.358 6.398-.306.164-.012.329-.015.493-.037 2.892-.388 7.192-2 8.873-4.531a5.97 5.97 0 0 0 .815-4.621c-.565-2.529-2.519-4.567-4.733-5.786-2.536-1.397-5.838-1.962-8.634-1.053-3.066.997-5.261 3.074-6.792 5.851.506.448.794.821 1.466.978 1.738 1.187 3.16 1.887 5.323 1.853 2.978-.046 5.38-1.602 7.386-3.69 1.24.32 1.513.106 2.743-.324.328 1.565.794 2.606-.034 4.136-1.116 2.062-4.581 3.033-6.677 3.678-3.523.363-7.197.89-10.22-1.399-1.078-.816-1.784-1.956-1.918-3.32-.245-2.5 1.379-5.107 3.044-6.823 2.311-2.381 5.713-4.117 9.081-4.111 3.107.007 6.667 1.823 9.401 3.234 8.44 4.354 16.6 9.575 24.794 14.384l54.166 32.091A7191.598 7191.598 0 0 1 343.18 302.189c-5.51 1.584-8.751 2.817-11.643 8.141-1.163 2.142-1.807 4.411-.986 6.797.902 2.621 3.181 4.438 5.65 5.518 4.218 1.844 9.765 1.761 13.983-.046 2.783-1.192 4.991-3.271 5.994-6.175.754-2.179.272-4.087-.243-6.263 10.673 6.119 21.224 13.599 30.754 21.4-5.098 2.448-8.491 5.014-10.448 10.583-1.251 3.559-2.728 8.194-.974 11.78.999 2.044 2.844 3.378 4.976 4.069 3.628 1.175 7.933.644 11.272-1.151 2.571-1.382 4.7-3.606 5.461-6.476.561-2.113.321-5.073-.782-6.993-.724-1.26-1.435-1.825-2.855-2.167-3.341-.806-9.414.346-12.844.981 2.43-4.272 5.008-6.017 9.439-7.98 6.539 4.067 19.388 9.747 21.191 17.529 1.195 5.159-1.214 10.664-4.014 14.912-4.247 6.445-10.178 10.284-17.191 13.174-1.916-3.019-3.894-6.04-5.58-9.194-3.091-5.782-5.184-12.284-10.597-16.387-8.03-6.087-17.743-10.894-26.431-16.023l-52.133-30.865-156.4-93.046c-17.569-10.479-35.272-20.68-52.727-31.356-6.094-3.727-41.693-26.393-45.121-27.278-1.145-.296-2.43-.376-3.607-.508a21.702 21.702 0 0 1-1.943-3.512Z"/>
    <path fill="#000" d="M71.193 148.155c1.24.32 1.513.106 2.743-.324l-1.021 1.725c-.203.343-.399.691-.617 1.025-1.738 2.663-5.102 3.947-8.123 4.478-1.885.332-4.531.249-6.009-1.165-1.411-1.351-1.345-3.106-1.148-4.88.506.448.794.821 1.466.978 1.738 1.187 3.16 1.887 5.323 1.853 2.978-.046 5.38-1.602 7.386-3.69Z"/>
    <path fill="#FEFEFE" d="m825.242 726.404.648.053c1.517 2.127.252 26.239-.093 30.122-.558 6.297-2.806 11.451-7.844 15.464-7.614 6.066-18.927 8.982-27.933 12.68a2780.62 2780.62 0 0 1-41.483 16.979l-131.534 54.744-96.551 40.425a2735.95 2735.95 0 0 1-39.005 16.232c-5.73 2.374-11.377 5.117-17.181 7.285-3.458 1.293-7.155 2.173-10.859 1.577-4.353-.7-6.858-2.984-9.399-6.409-7.082-13.458.674-30.162-5.386-44.216 9.644 2.967 19.841 6.421 29.985 3.979 12.041-2.899 23.527-9.339 34.941-14.13l66.957-27.802 144.311-60.682 61.68-26.036c16.237-6.728 32.787-12.901 48.746-20.265Zm-38.117-462.779c4.427 2.645 15.87 6.761 17.217 11.728.78 2.876-.19 6.061-1.761 8.494-.927 1.437-2.252 2.852-3.95 3.338-1.172.335-2.449.164-3.456-.538-.378-.264-.579-.551-.858-.894l-.155-2.001c1.542-.788 2.823-1.601 3.918-2.971 1.657-2.072 1.931-4.456 1.568-7.002l.351-2.786c-1.577-.884-3.414-1.789-5.29-1.348-2.266.533-3.825 1.996-4.917 4.014-1.895 3.507-2.277 8.226-.973 11.993.828 2.391 2.379 4.54 4.762 5.551 2.084.884 4.397.946 6.464-.017 3.519-1.639 5.957-5.796 7.084-9.359.468-1.478.71-3.046.963-4.572 2.026 1.507 4.636 3.102 6.272 5.015 3.562 4.167 6.296 9.76 9.425 14.305 7.592 11.03 49.114 68.944 50.315 75.437.895 4.837-1.239 12.264-4.125 16.095-1.647 2.187-4.359 3.306-6.808 4.377-7.2 3.149-14.885 5.445-22.26 8.199a804.36 804.36 0 0 0-42.4 16.896c-7.544 3.17-15.295 6.181-22.577 9.912-6.447 3.303-18.273 18.101-24.857 24.141-11.702 10.735-23.91 19.527-37.012 28.447-29.17 19.861-52.398 33.156-88.482 37.11a186.58 186.58 0 0 1-48.4-.584c-10.356-1.478-21.235-4.302-31.721-4.035-13.257.338-27.501 4.957-40.352 8.067-12.785 3.095-25.06 8.458-36.659-.731-7.357-5.829-12.5-14.554-13.447-23.949-.505-5.016.084-10.165 1.221-15.057 2.161-9.298 6.198-18.51 9.067-27.653l12.604-39.296c2.425-7.453 4.584-15.088 7.481-22.373 1.2-3.017 2.798-6.008 4.901-8.494 1.301-1.537 2.487-2.632 4.531-2.939 1.272.454 1.828.494 2.458 1.802.707 1.467.88 4.054 1.326 5.733a88.274 88.274 0 0 0 3.278 9.922c9.594 24.131 25.221 44.271 48.069 57.161 27.505 15.517 64.289 19.448 94.563 10.827 46.585-13.267 93.074-55.17 116.294-97.146 7.928-14.332 15.144-30.879 18.595-46.897 1.565-7.266 2.69-15.706 2.642-23.153-.081-12.598-5.247-24.337 5.091-34.769Z"/>
    <path fill="#000" d="M799.999 270.993c1.779 1.936 2.517 3.321 2.356 6.003-.168 2.784-1.104 5.625-3.215 7.539-1.106 1.002-2.478 1.675-4.004 1.419-.277-.046-.546-.134-.819-.201l-.155-2.001c1.542-.788 2.823-1.601 3.918-2.971 1.657-2.072 1.931-4.456 1.568-7.002l.351-2.786Zm11.965 37.066c.909-.083 1.8-.151 2.713-.13 2.869.066 4.665.826 6.595 2.975 5.739 6.389 14.907 22.107 20.138 30 5.861 8.846 13.133 18.088 18.321 27.211.983 1.728 1.711 3.809 1.541 5.824-.126 1.494-.816 2.989-2.124 3.809-1.26.79-2.9.874-4.323.602-2.585-.494-4.702-2.092-6.446-3.996-3.314-3.619-5.788-8.584-8.57-12.66-9.137-13.385-17.629-27.453-27.349-40.4-.887-1.181-1.526-2.236-3.041-2.458-5.249 4.294-11.13 32.458-13.57 40.341 7.693 3.358 16.068 6.818 21.197 13.823 2.207 3.015 3.551 6.698 2.852 10.455-.663 3.564-3.02 6.268-5.969 8.237-10.814 7.221-27.608 6.78-39.766 4.158-24.182 35.207-59.439 64.259-98.172 82.085 1.584 5.343 2.331 10.536.273 15.911-1.4 3.657-3.983 6.829-7.634 8.389-3.433 1.468-7.606 1.462-11.034-.014-5.297-2.28-7.032-6.59-8.988-11.581-23.25 7.489-49.721 8.257-73.563 3.06-8.53-1.859-16.806-4.634-25.103-7.317l-5.779 2.117c-13.988 5.469-49.606 20.675-63.045 16.664-4.347-1.298-7.823-4.237-9.975-8.213-3.749-6.927-3.118-15.331-.951-22.643 2.294-7.738 5.322-15.284 8.131-22.846 1.807-4.863 3.411-10.341 5.943-14.864 1.217-2.175 3.181-5.447 5.613-6.457 2.642-1.097 4.278.106 5.936 2.025 3.488 4.039 6.377 8.869 9.685 13.097 11.666 14.911 26.291 28.663 43.923 36.098 27.819 11.731 71.563 16.227 99.798 4.876 1.305-3.52 2.586-6.821 4.86-9.864 2.35-3.147 5.578-5.809 9.598-6.301 4.41-.54 7.55 1.562 10.847 4.116 4.086-1.855 8.167-3.841 12.117-5.973 41.779-22.551 82.721-63.762 101.86-107.504 4.714-10.773 7.01-22.118 10.392-33.31 2.453-8.118 5.128-15.088 13.069-19.342Z"/>
    <path fill="#FEFEFE" d="M663.15 473.997c2.038-.01 3.797.154 5.554 1.282 2.589 1.661 4.083 4.466 4.694 7.415.861 4.162.224 8.982-2.242 12.508-2.147 3.068-4.419 3.635-7.988 4.178-.943-.088-1.87-.175-2.791-.41-2.518-.64-4.77-2.176-6.041-4.478-1.659-3.004-1.488-6.722-.449-9.9 1.609-4.919 4.736-8.262 9.263-10.595Z"/>
    <path fill="#000" d="M664.051 477.899c.923-.039 1.821-.049 2.73.138 1.983.409 3.589 1.769 4.591 3.497 1.305 2.25 1.362 5.007.657 7.461-.81 2.816-2.426 4.15-4.865 5.597-.937.143-1.843.238-2.79.168-1.724-.128-3.187-.847-4.236-2.245-1.547-2.065-1.707-4.872-1.185-7.316.728-3.408 2.192-5.455 5.098-7.3Z"/>
    <path fill="#FEFEFE" d="M665.048 481.796c1.36.388 2.639.897 3.475 2.109.662.96.9 1.961.714 3.109-.395 2.453-1.721 3.732-3.69 5.082-1.07-.365-1.897-.591-2.681-1.47a4.63 4.63 0 0 1-1.173-3.605c.267-2.426 1.592-3.704 3.355-5.225Zm127.984-118.053c3.453 1.141 6.917 2.199 10.135 3.921 4.382 2.344 9.891 6.035 11.199 11.093.508 1.966.292 3.978-.789 5.715-2.688 4.32-9.019 5.805-13.658 6.882-7.721 1.369-14.481 1.293-22.245.231 5.206-9.341 10.665-18.192 15.358-27.842Zm-301.699 70.036c3.744 2.704 6.761 8.598 9.67 12.299 13.166 16.754 25.203 28.416 44.523 38.171-11.712 3.455-23.12 8.083-34.74 11.871-8.41 2.096-17.519 6.777-26.39 5.257-3.597-.617-7.037-2.296-9.159-5.353-3.82-5.503-3.009-13.571-1.716-19.764 2.465.991 4.719 1.699 7.327 2.242.932-.536 1.874-1.101 2.745-1.731 7.19-5.201 11.564-20.565 12.864-28.817-3.013-8.359-5.432-4.851-8.384-8.925.279-1.946 2.078-3.728 3.26-5.25Z"/>
    <path fill="#000" d="M513.584 469.005c1.267.007 2.458.065 3.677.452 2.167.689 3.969 2.138 4.91 4.237 1.4 3.12.832 6.916-.418 9.981-1.785 4.379-4.987 7.699-9.341 9.501-1.194.021-2.373-.037-3.547-.275-1.969-.4-3.807-1.543-4.855-3.286-1.549-2.573-1.183-5.921-.333-8.66 1.645-5.3 5.014-9.411 9.907-11.95Z"/>
    <path fill="#FEFEFE" d="m517.777 478.804.647.165c.682.652.783.455.796 1.235.057 3.194-3.701 6.848-5.809 9.069l-1.011-.481c-.022-.198-.066-.395-.066-.594.003-3.31 3.122-7.281 5.443-9.394Zm269.187-45.428c.645.037 1.008.052 1.577.399.955.583-1.207 18.789-1.407 20.992-1.044 11.463-1.378 22.979-2.059 34.468l-4.068 70.485c-.513 9.142-2.924 38.245-.561 46.025.924 3.039 3.745 6.647 5.696 9.146 8.142 10.433 17.496 19.905 25.978 30.059 7.454 8.924 15.932 21.028 23.792 28.999 2.034 2.063 5.474 3.381 7.993 4.894.984 1.786 1.866 3.64 2.278 5.648 1.576 7.69-1.218 16.344-5.541 22.731-3.8 5.613-9.27 10.695-15.316 13.757-14.376 7.279-31.772 13.227-46.847 19.558L673.334 784.67a11617.431 11617.431 0 0 1-150.415 63.072l-33.807 14.368c-6.1 2.593-13.084 6.551-19.592 7.608-4.267.693-9.103-1.132-12.521-3.617-4.411-3.207-6.941-7.943-7.725-13.289-2.164-14.755 6.964-25.932 15.071-37.085 8.336-12.11 70.106-107.053 70.341-113.011.008-.217.001-.435.007-.652.012-.479.036-.958.041-1.437.067-6.238-.904-12.651-1.434-18.874a2856.62 2856.62 0 0 0-3.432-38.322l-2.124-23.713c-.381-4.327-.506-8.92-1.35-13.172-.304-1.534-1.072-2.345-2.137-3.422-4.157-1.117-19.081 5.159-23.556 6.683-4.524-3.007-8.898-6.054-13.776-8.477 1.703-.292 3.432-.58 5.107-1.003 1.636-.413 2.464-.958 3.322-2.462 1.337-9.857-12.985-6.132-17.239-12.844-1.678-2.647-1.879-5.691-1.194-8.695 2.579-11.308 12.525-21.418 21.875-27.592 6.412 2.323 17.415 11.922 22.488 12.61 1.311.177 1.704-.414 2.586-1.212 1.77-5.218-2.107-31.641-2.312-39.548 7.212-1.808 14.652-2.708 22.021-3.61 1.463 5.329 3.112 10.533 5.718 15.43 8.553 16.073 24.194 27.189 41.404 32.375 41.34 12.456 91.059-8.444 122.544-35.326 18.217-15.555 34.362-35.442 47.738-55.262a183.384 183.384 0 0 0 10.415-17.511c3.413-6.61 6.376-14.545 11.154-20.263 1.059-1.268 2.39-1.994 3.837-2.749.191-.1.383-.195.575-.292Z"/>
    <path fill="#000" d="M493.46 559.573c5.595 1.05 8.971 3.308 12.599 7.575-2.401 4.744-5.873 9.566-9.314 13.621-.221-.016-.442-.026-.663-.048-3.086-.302-7.833-2.072-9.822-4.571-1.232-1.549-1.626-3.415-1.28-5.352.801-4.488 4.799-8.773 8.48-11.225Z"/>
    <path fill="#FEFEFE" d="M495.479 565.677c.699.259 1.079.569 1.66 1.023.317.888.311 1.562.137 2.475-.398 2.086-1.769 6.004-3.599 7.177l-3.496-3.356 5.298-7.319Z"/>
    <path fill="#000" d="M557.776 593.561c1.394.001 2.585.044 3.889.59 1.829.766 3.362 2.171 4.066 4.043 1.314 3.489.011 8.344-1.509 11.563-2.655 5.621-7.072 10.24-13.018 12.241-1.368-.057-2.513-.234-3.793-.75-1.775-.714-3.245-2.011-3.954-3.81-1.539-3.9.297-9.314 2.051-12.844 2.692-5.417 6.549-9.087 12.268-11.033Zm226.636 40c1.998-.087 3.734-.007 5.558.899 1.734.862 3.05 2.147 3.65 4.017 1.066 3.321.031 7.331-1.474 10.349-2.657 5.326-6.75 9.199-12.345 11.175-1.893.068-3.693.214-5.434-.653-1.897-.946-3.29-2.325-3.934-4.378-1.263-4.023.189-9.022 2.221-12.545 2.776-4.815 6.44-7.501 11.758-8.864ZM472.717 826.554c1.597-.23 3.316-.291 4.898.076 1.903.441 3.891 1.377 4.892 3.142 1.364 2.405 1.051 5.728.394 8.296-1.756 6.863-6.884 11.966-12.864 15.335-1.542.414-2.92.53-4.514.327-1.944-.247-4.067-.796-5.185-2.565-1.547-2.448-.982-6.353-.314-8.981 1.775-6.982 6.639-12.108 12.693-15.63Zm355.542-143.946c1.241.13 2.384.284 3.532.804 2.058.932 3.96 2.563 4.639 4.777 1.02 3.328-.246 7.523-1.786 10.492-3.007 5.797-7.825 9.865-14.015 11.819-1.602-.049-3.049-.183-4.487-.949-1.728-.921-3.025-2.365-3.539-4.271-1.11-4.115.685-9.339 2.816-12.84 2.994-4.921 7.228-8.47 12.84-9.832Zm-291.577 50.447c1.66-.04 3.425.153 4.909.943 1.688.899 3.087 2.328 3.633 4.191 1.319 4.5-.75 10.196-3.074 14.022-3.145 5.174-7.305 8.74-13.176 10.248-1.073-.038-1.98-.081-2.999-.454-2.141-.783-4.133-1.949-4.988-4.169-1.326-3.444.192-8.452 1.642-11.627 2.833-6.207 7.654-10.841 14.053-13.154Zm226.535-217.471c2.068-.147 3.881-.003 5.766.929 1.838.908 3.146 2.364 3.732 4.34 1.358 4.576-.665 10.16-2.958 14.117-2.889 4.986-6.415 8.003-11.951 9.539-1.603.059-3.457.238-4.977-.35-1.955-.756-3.671-2.283-4.405-4.265-1.355-3.661-.289-8.627 1.289-12.055 2.763-5.999 7.38-10.044 13.504-12.255Zm-94.379 43.951c2.334-.17 4.659.151 6.603 1.568 1.645 1.198 2.359 3.011 2.513 4.986.448 5.749-2.902 10.617-6.455 14.755 16.631-3.375 31.239-3.613 46.453 5.044 16.687 9.496 28.553 26.821 33.429 45.162 8.466 31.848-1.11 66.053-17.158 93.896-18.051 31.321-44.612 54.109-79.855 63.542a76.927 76.927 0 0 1-15.923 1.756 76.914 76.914 0 0 1-21.138-2.849 76.525 76.525 0 0 1-5.096-1.622c-14.465-5.13-33.324-17.647-40.053-31.881-9.697-20.512-9.685-44.969-2.17-66.065 11.058-31.043 32.823-65.375 58.749-85.83 9.028-7.122 18.439-12.256 28.755-17.172-.727-1-1.417-2.009-1.948-3.131-1.448-3.063-1.225-6.599-.043-9.718 2.339-6.177 7.479-9.956 13.337-12.441Z"/>
    <path fill="#FEFEFE" d="M689.226 591.193c12.727-1.24 26.49 1.909 36.903 9.5 13.289 9.687 19.987 26.077 22.369 41.902 5.118 34.002-9.198 68.892-29.196 95.892-17.055 23.027-44.539 42.085-73.185 46.387-13.843 1.516-28.086-1.926-39.067-10.638-12.915-10.245-19.223-25.905-20.973-41.994-3.627-33.351 12.459-72.547 33.186-98.243 17.078-21.173 42.341-39.78 69.963-42.806Z"/>
    <path fill="#000" d="M688.589 605.199c11.115-.132 21.611 2.558 30.231 9.896 10.899 9.279 15.68 23.382 16.713 37.304 2.33 31.389-11.306 61.967-31.574 85.318-14.559 16.773-35.777 30.516-58.335 32.09-10.98.645-21.549-2.006-29.964-9.322-11.148-9.689-16.555-23.997-17.574-38.46-2.092-29.7 11.367-60.633 30.621-82.686 15.365-17.597 35.968-32.501 59.882-34.14Z"/>
    <path fill="#FEFEFE" d="M696.274 647.139c4.564-.572 9.397.189 13.388 2.552 5.567 3.296 9 9.617 10.486 15.77 3.298 13.652-2.684 28.642-9.82 40.079-8.579 13.75-20.832 25.519-36.927 29.307-5.85.953-11.67.609-16.721-2.834-5.073-3.46-7.435-9.3-8.394-15.162-2.557-15.624 4.558-33.062 13.517-45.538 8.394-11.688 19.92-21.785 34.471-24.174Z"/>
    <path fill="#000" d="M690.549 669.617c2.514-.006 4.708.321 6.916 1.605 2.414 1.404 3.921 3.598 4.605 6.283 1.869 7.335-.84 16.258-4.624 22.57-4.6 7.675-11.035 12.38-19.687 14.577-2.029-.186-3.733-.461-5.511-1.513-3.621-2.142-5.76-4.798-6.625-8.952-1.487-7.147 1.098-14.147 5.149-19.961 4.929-7.075 11.033-13.032 19.777-14.609Z"/>
    <path fill="#FEFEFE" d="M691.304 680.718c1.183-.026 2.695-.167 3.804.309 1.324.567 2.034 1.29 2.609 2.608 1.441 3.306-.666 8.559-2.098 11.657-3.624 7.842-9.192 12.45-17.247 15.43-.914.053-1.951.187-2.855.044-1.318-.208-1.813-.984-2.531-1.992-1.03-7.056 5.459-11.607 6.423-17.026.452-2.541-1.924-4.794-.823-7.453 3.172-3.16 8.491-3.239 12.718-3.577Z"/>
    <path fill="#000" d="M688.063 682.478c.7.13.706.118 1.476.331 1.781.493 3.145 1.477 3.996 3.138 1.19 2.321.942 5.07.057 7.452-1.325 3.569-3.309 5.602-6.704 7.187-.854-.055-1.636-.113-2.456-.379-1.617-.525-2.904-1.34-3.679-2.911-1.045-2.117-.759-4.636.008-6.795 1.384-3.891 3.638-6.231 7.302-8.023Z"/>
    <path fill="#FEFEFE" d="M688.315 686.223c.481.23.997.44 1.396.81.944.877 1.398 2.249 1.287 3.513-.236 2.689-2.098 4.457-4.128 5.968-1.196-.377-2.117-.956-2.71-2.11-.544-1.056-.626-2.105-.291-3.239.751-2.537 2.237-3.66 4.446-4.942Z"/>
    <path fill="#FEFEFE" d="M686.657 609.187c6.997-.747 14.331.594 20.727 3.479 10.121 4.565 16.582 12.393 20.448 22.694 8.183 21.806 3.226 46.871-6.058 67.429-11.49 25.446-31.881 49.19-58.632 59.131-11.809 4.389-25.064 6.025-36.819.556-11.427-5.317-17.536-14.719-21.64-26.221 2.565 3.229 5.189 6.175 8.52 8.632 9.924 7.319 23.418 9.028 35.367 7.169 22.112-3.44 48.608-18.14 61.765-36.293 9.943-13.718 17.407-30.676 14.556-47.914-1.096-6.63-4.437-16-10.144-20.045-2.326-1.649-5.105-2.61-7.432-4.253-3.669-2.588-6.875-5.82-10.554-8.425-9.409-6.66-20.562-9.612-31.998-7.635-16.331 2.823-28.331 12.687-37.511 25.884a67.18 67.18 0 0 0-6.704 14.283c-3.516 10.671-6.078 32.514-.663 42.725 1.654 3.121 3.487 6.095 5.697 8.856 2.602 3.252 7.123 8.711 11.44 9.166 2.316-.955 2.475-2.921 2.254-5.181-.419-4.298-2.058-8.445-2.631-12.733-1.433-10.73 2.926-24.193 7.741-33.622 7.463-14.616 21.838-29.327 37.778-34.412 5.106-1.629 11.454-2.95 16.418-.398l.136.533c-2.299 1.002-5.196 1.048-7.665 1.513-6.02 1.134-12.396 5.101-17.157 8.834-15.866 12.44-27.97 32.4-30.224 52.586-.99 8.864.513 18.837 6.41 25.85 5.992 7.125 13.609 7.579 22.186 8.154-8.837 4.216-12.904 4.167-22.046 5.854-3.872.715-7.665 1.78-11.575 2.307-8.127 1.098-17.045-1.058-23.547-6.159-7.567-5.936-10.951-15.814-12.06-25.055-2.878-23.964 9.976-50.827 24.445-69.164 14.6-18.504 35.098-35.25 59.172-38.125Z"/>
  </g>
  <defs>
    <clipPath id="a">
      <path fill="#fff" d="M0 0h884v935H0z"/>
    </clipPath>
  </defs>
</svg>
