<svg xmlns="http://www.w3.org/2000/svg" width="928" height="929" fill="none" viewBox="0 0 928 929">
  <g clip-path="url(#a)">
    <path fill="#BA5658" d="M909.904 347.9c.993.455 1.629.606 2.228 1.57 2.689 4.323 6.351 24.718 7.435 30.741a459.741 459.741 0 0 1 3.824 23.936 459.122 459.122 0 0 1 2.55 24.105 457.027 457.027 0 0 1-1.171 84.72 458.588 458.588 0 0 1-5.3 35.966 459.8 459.8 0 0 1-5.114 23.694 458.548 458.548 0 0 1-2.879 11.128 460.639 460.639 0 0 1-6.579 22.024 464.254 464.254 0 0 1-11.892 32.359 466.418 466.418 0 0 1-14.261 31.388 462.315 462.315 0 0 1-10.785 20.299 465.948 465.948 0 0 1-11.776 19.74 465.61 465.61 0 0 1-19.46 28.458 463.592 463.592 0 0 1-29.129 35.548 461.032 461.032 0 0 1-15.848 16.65 467.959 467.959 0 0 1-16.652 15.845 462.937 462.937 0 0 1-35.555 29.121 462.575 462.575 0 0 1-18.815 13.205 464.208 464.208 0 0 1-19.445 12.258 466.91 466.91 0 0 1-25.553 14.322 458.602 458.602 0 0 1-8.713 4.41 458.72 458.72 0 0 1-17.695 8.266 461.129 461.129 0 0 1-27.156 10.981 454.873 454.873 0 0 1-9.2 3.276 456.962 456.962 0 0 1-9.267 3.081 457.082 457.082 0 0 1-18.718 5.572 459.915 459.915 0 0 1-18.937 4.778c-3.173.73-6.353 1.426-9.54 2.088A457.952 457.952 0 0 1 537.3 921a462.55 462.55 0 0 1-29.041 3.829 459.148 459.148 0 0 1-29.226 1.985 460.497 460.497 0 0 1-29.292.133 460.575 460.575 0 0 1-29.242-1.72 465.05 465.05 0 0 1-19.409-2.173c-20.496-2.728-40.632-7.615-60.693-12.521-.456-.21-.657-.284-1.107-.591-.977-.666-1.764-1.458-1.854-2.694-.099-1.344.316-2.251 1.091-3.289 1.624-.718 1.976-.623 3.732-.363 6.346.941 12.845 3.023 19.127 4.455 13.237 3.017 26.614 5.769 40.07 7.612a451.8 451.8 0 0 0 29.562 3.062 453.843 453.843 0 0 0 29.7 1.114 454.524 454.524 0 0 0 19.812-.341 453.843 453.843 0 0 0 19.779-1.209 451.747 451.747 0 0 0 68.412-11.01 452.767 452.767 0 0 0 65.929-21.326 450.658 450.658 0 0 0 18.162-7.924 454.46 454.46 0 0 0 17.798-8.712 460.153 460.153 0 0 0 8.752-4.645 454.055 454.055 0 0 0 25.615-15.072c9.707-6.179 19.322-12.366 28.483-19.34 27.791-21.156 53.475-43.865 76.454-70.264a453.997 453.997 0 0 0 25.365-32.303 452.78 452.78 0 0 0 22.339-34.465 448.595 448.595 0 0 0 9.976-17.955 454.575 454.575 0 0 0 13.415-27.734 453.983 453.983 0 0 0 21.035-57.877 450.287 450.287 0 0 0 7.523-29.876 453.93 453.93 0 0 0 5.478-30.317 452.144 452.144 0 0 0 2.502-20.388 454.81 454.81 0 0 0 2.016-30.742 456.559 456.559 0 0 0 .183-20.54 482.773 482.773 0 0 0-10.423-89.884c-.838-3.873-3.91-14.263-3.46-17.603 1.069-1.441 2.431-1.805 4.041-2.412ZM454.265.222c11.081-.324 58.549.395 67.813 3.66.694.721.975 1.121 1.242 2.118.358 1.339.122 2.877-.595 4.045-.452.737-.829.854-1.693.955-3.487.404-14.765-1.302-18.893-1.622a443.658 443.658 0 0 0-100.388 2.741 443.753 443.753 0 0 0-59.029 12.503 465.889 465.889 0 0 0-27.019 8.71 467.914 467.914 0 0 0-43.698 18.107 473.38 473.38 0 0 0-16.929 8.464 473.483 473.483 0 0 0-16.572 9.144 462.923 462.923 0 0 0-16.188 9.806 463.965 463.965 0 0 0-15.778 10.454 463.603 463.603 0 0 0-15.342 11.084 461.736 461.736 0 0 0-22.141 17.767 467.433 467.433 0 0 0-47.176 46.433 468.162 468.162 0 0 0-23.856 29.381c-11.643 15.532-22.521 31.291-31.937 48.311a457.73 457.73 0 0 0-21.844 44.377 456.61 456.61 0 0 0-10.762 27.667 455.194 455.194 0 0 0-6.168 18.806 459.357 459.357 0 0 0-7.716 28.666 457.971 457.971 0 0 0-4.707 186.668c3.427 19.027 8.687 37.988 14.038 56.558 2.86 10.167 6.987 20.318 10.872 30.135 1.76 4.446 4.013 9.087 5.24 13.697.266.997.505 1.943.01 2.917-.543 1.07-1.587 1.949-2.793 2.169-1.18.216-2.147-.09-2.966-.943-2.644-2.754-6.316-14.926-7.874-19.14C14.18 587.249 2.947 538.732.709 488.948a457.043 457.043 0 0 1 3.805-88.575 456.578 456.578 0 0 1 7.188-38.792 455.986 455.986 0 0 1 7.571-28.609 457.075 457.075 0 0 1 20.61-55.449 455.624 455.624 0 0 1 12.951-26.609 458.372 458.372 0 0 1 14.646-25.716 459.728 459.728 0 0 1 16.278-24.714 459.989 459.989 0 0 1 5.778-7.997c8.836-11.891 18.028-23.654 28.064-34.567C173.951 96.65 237.404 52.762 316.333 25.448a452.247 452.247 0 0 1 91.698-21.941c15.334-1.97 30.8-2.65 46.234-3.285Z"/>
    <path fill="#000" d="M578.266 8.148C623.03 5.026 706.564 64.337 741.73 91.259c8.32-9.237 15.982-19.352 23.951-28.914 3.059-3.67 6.088-7.821 9.582-11.065 2.263-2.1 4.077-3.113 7.241-2.862 12.505.99 32.545 17.375 40.667 26.4 3.629 4.034 9.201 10.391 10.23 15.879.409 2.186.082 4.749-.04 6.968-11.019 14.701-23.994 28.007-35.465 42.362 8.729 8.988 18.057 17.383 26.727 26.442 24.242 25.328 47.314 53.684 65.469 83.731 7.717 12.771 20.212 31.88 16.045 47.403a17.205 17.205 0 0 1-2.851 5.913c-5.774 7.785-13.641 14.913-20.309 21.996-7.885 8.377-15.503 17.478-23.925 25.291-1.562 1.448-3.185 2.59-5.034 3.648-1.804-1.105-3.25-2.363-4.802-3.795.495-2.094.996-4.261 1.104-6.416 1.282-25.605-56.543-92.87-74.142-111.775-12.231-13.139-25.767-25.068-37.806-38.331 3.957 11.755 5.17 22.304 4.548 34.626 27.393 24.12 62.243 67.724 80.085 99.545 3.625 6.464 7.174 13.109 10.162 19.896 2.633 5.98 4.803 12.32 8.18 17.93l.455.744c-.456 1.944-1.031 3.82-1.825 5.654-1.034 2.386-2.55 4.75-4.187 6.761-6.498 7.985-14.626 15.24-21.653 22.81-7.102 7.652-13.815 16.546-21.631 23.421-1.449 1.275-2.954 2.001-4.735 2.712-5.131-.328-9.806-1.296-14.415-3.668-.792-.407-1.479-.733-2.347-.977l-.858.891c-1.244 4.879 3.496 12.007 4.11 17.208.558 4.739-1.027 7.71-3.91 11.352-5.804 7.334-13.286 13.885-19.81 20.62-5.598 5.778-11.965 13.923-18.391 18.618-2.567 1.876-4.957 2.819-8.123 3.127-33.746 3.282-115.291-57.434-140.907-78.235-53.571 56.193-103.616 113.508-149.497 176.22-18.866 25.786-37.901 52.432-52.938 80.696-7.445 13.993-31.688 66.286-25.666 80.56 2.783 6.594 13.867 15.044 19.213 20.592 4.249 4.408 9.333 9.16 11.032 15.217 1.53 5.454.227 11.323-2.64 16.108-3.193 5.327-8.183 9.691-12.301 14.3l-19.566 22.305c-12.278 14.078-24.81 27.974-36.944 42.173-9.984 11.683-19.856 24.437-30.865 35.154-3.313 3.226-7.519 6.549-12.091 7.634-5.175 1.228-10.745-.443-15.201-3.099a4303.758 4303.758 0 0 0 80.033-90.719l25.825-29.208c4.775-5.384 9.804-10.577 14.173-16.303-2.218-2.939-4.545-5.453-7.18-8.02-9.033 6.756-16.04 16.335-23.355 24.868a1234.774 1234.774 0 0 1-20.845 23.723c-17.407 19.047-33.931 38.977-50.883 58.428-7.976 9.153-21.425 22.133-27.375 32.104-7.726-5.276-11.71-11.983-16.142-19.979a91.683 91.683 0 0 1-12.185 2.416c-32.936 4.395-67.812-5.549-94.026-25.792a135.99 135.99 0 0 1-4.654-3.778 136.022 136.022 0 0 1-4.488-3.974 140.954 140.954 0 0 1-4.313-4.163 136.54 136.54 0 0 1-6.125-6.581 140.035 140.035 0 0 1-7.483-9.363 138.474 138.474 0 0 1-5.071-7.424 138.564 138.564 0 0 1-4.582-7.735 148.89 148.89 0 0 1-1.416-2.642 144.334 144.334 0 0 1-2.659-5.372 143.476 143.476 0 0 1-2.427-5.482 138.977 138.977 0 0 1-3.193-8.404 139.043 139.043 0 0 1-2.646-8.593 145.284 145.284 0 0 1-1.454-5.815c-1.638-7.034-2.476-14.152-3.367-21.31-9.616-7.616-20.016-14.279-29.355-22.229 11.551-14.815 25.171-28.07 37.727-42.027l67.139-75.296c4.04-4.49 8.147-9.036 12.517-13.208 2.621-2.502 5.692-4.548 7.973-7.37-.2-1.648-1.576-3.243-2.775-4.321-1.731-1.557-3.911-2.588-6.282-2.339-1.869.196-3.425 1.093-4.772 2.37-2.777 2.633-4.882 6.374-7.395 9.325-6.393 7.506-13.155 14.799-19.837 22.051a3451.095 3451.095 0 0 0-67.711 75.221c-8.35 9.512-16.997 18.808-25.084 28.543-4.398-5.797-5.102-11.351-4.792-18.36 2.35-3.87 6.069-7.465 9.09-10.839a2427.987 2427.987 0 0 0 16.806-18.779c16.54-18.814 33.58-37.144 50.288-55.8 10.167-11.354 19.851-23.163 30.372-34.196 2.748-2.882 7.53-8.836 11.335-9.931.187-.054.377-.094.564-.146 1.52-.424 3-.839 4.573-1.037 9.475-1.196 15.91 3.29 23.02 8.648 10.315 7.772 21.015 8.947 33.577 7.128 82.955-12.014 191.34-140.72 245.673-202.495l32.263-36.007c8.504-9.399 17.168-18.629 24.804-28.763-33.843-28.104-83.107-77.739-104.122-115.798-3.819-6.917-8.867-17.69-6.342-25.693.542-1.717 1.369-3.217 2.435-4.665 6.184-8.401 14.299-16.298 21.44-23.922 4.817-5.143 9.479-10.793 14.665-15.546 1.924-1.765 4.158-3.421 6.507-4.572 9.142-4.482 24.469 2.329 33.545 5.239-5.558-8.238-14.578-14.664-14.738-25.601-.032-2.155.124-4.98 1.172-6.921 2.357-4.364 17.056-19.386 21.147-23.979 4.362-4.896 8.387-10.254 12.951-14.938 4.837-4.965 10.39-6.373 17.105-6.353 35.664.105 95.588 38.844 124.854 59.671 8.508 6.056 17.71 12.006 25.069 19.451 12.496-2.235 23.081-3.075 35.499.088-4.736-4.643-10.702-8.698-15.874-12.892-29.497-23.92-60.635-45.078-94.482-62.361-15.311-7.819-30.254-14.68-46.818-19.479-6.524-1.891-13.63-4.066-20.417-4.519 6.551-8.208 13.894-16.025 20.731-24.024 5.229-6.117 19.552-24.267 24.995-28.193 2.75-1.984 6.15-2.39 9.408-2.9Z"/>
    <path fill="#FEFEFE" d="M510.398 382.39c1.388 1.644 1.601 5.642 2.325 7.798a34.62 34.62 0 0 0 6.731 11.621c7.749 8.695 18.951 12.274 30.289 12.84l-5.878 6.828-1.098.447c-6.489-.8-13.708-3.557-19.298-6.99-9.591-5.89-15.326-16.607-17.899-27.302 1.444-1.879 3.183-3.54 4.828-5.242ZM784.599 55.42c.747.157 1.423.309 2.145.564 13.838 4.888 33.837 19.589 40.075 33.118-7.063-.63-13.73-4.067-19.682-7.76-8.942-5.55-20.062-15.205-22.538-25.922Z"/>
    <path fill="#FEFEFE" d="M500.779 392.884c1.154 2.158 1.863 4.81 2.945 7.073 7.664 16.046 18.143 22.258 34.421 27.955-4.283 4.443-8.859 8.626-12.756 13.421l-.685.609c-.544-.049-.709-.034-1.286-.26-2.424-.948-5.341-3.137-7.622-4.502-13.768-8.237-19.65-15.944-26.957-30.043 3.91-4.806 7.753-9.683 11.94-14.253ZM279.44 613.056c1.13 3.429-6.956 13.575-8.87 17.197a35.988 35.988 0 0 0-3.278 8.815c-1.214 5.495-.685 10.491.333 15.966-14.35-7.05-28.098-12.165-44.007-14.452-5.768-.579-11.467-1.033-17.259-1.282 6.81-1.967 13.788-3.299 20.604-5.257 16.925-4.864 37.124-12.59 52.477-20.987Zm75.997 56.037.09.045c.227 1.334-7.44 14.846-8.516 17.51-7.033 17.409-12.792 33.167-15.299 51.908a286.435 286.435 0 0 0-8.637-22.813c-5.69-11.591-12.793-21.4-20.698-31.504 1.938.736 3.867 1.377 5.913 1.744 10.898 1.957 38.095-10.547 47.147-16.89ZM775.032 68.82c1.716.791 4.691 6.831 6.221 8.603a74.376 74.376 0 0 0 9.647 9.165 74.695 74.695 0 0 0 6.521 4.617 73.445 73.445 0 0 0 4.607 2.677 74.16 74.16 0 0 0 14.804 5.96c-7.753 11.163-17.496 21.324-26.087 31.883l-.758.665c-4.494-2.356-11.466-10.169-15.56-13.788a805 805 0 0 0-24.618-20.524c8.135-9.998 17.089-19.272 25.223-29.259ZM483.05 132.174c40.552.092 110.179 50.522 139.466 77.52-1.067 7.766-.43 15.423 1.14 23.066a533.973 533.973 0 0 0-6.671-5.909 470.149 470.149 0 0 0-12.358-9.762c-25.162-19.251-75.476-56.759-105.609-62.051-5.376-.944-10.671-.057-16.011.654-3.598-3.443-9.588-9.79-10.466-14.68-.295-1.644-.017-3.314 1.001-4.666 2.09-2.775 6.292-3.639 9.508-4.172Zm216.741 145.405c.034-.004.068-.015.101-.012 5.032.444 21.811 19.767 25.658 24.009 20.954 23.099 40.407 47.528 56.311 74.4 4.456 7.529 9.285 15.515 11.638 23.992 1.133 4.084 1.084 7.705.88 11.885-1.67 2.888-4.352 7.01-7.647 8.105-3.656 1.215-6.88-.798-10.098-2.305a64.794 64.794 0 0 0-.06-2.645c-1.381-34.824-73.532-111.259-99.527-135.687 8.011 1.439 14.92.134 22.744-1.742ZM569.749 319.86c8.531 2.074 22.138 15.72 27.634 22.283 3.09 3.69 5.644 7.771 8.785 11.41l.407.465c-10.115 12.121-21.839 23.095-32.667 34.594-4.95 5.256-11.874 14.113-17.033 18.435-.92.771-1.933.932-3.082 1.165a61.334 61.334 0 0 1-6.558.18c-8.645-.228-17.296-4.138-23.095-10.579-4.208-4.674-8.122-12.555-7.716-18.943.126-1.988.731-3.207 1.845-4.818 5.783-8.361 14.112-15.667 21.119-23.036 9.893-10.402 19.553-21.703 30.361-31.156Zm168.429-76.097c5.102 4.252 9.718 9.434 14.252 14.269a461.736 461.736 0 0 1 39.46 48.049c9.083 12.814 37.808 54.368 35.026 68.402-1.189 6.001-14.477 19.748-19.742 23.391l-.395-.503c-5.399-27.494-37.467-69.817-56.421-91.216-11.039-12.464-22.93-24.128-34.93-35.652a60.362 60.362 0 0 0 1.871-1.213 59.146 59.146 0 0 0 1.822-1.285 58.29 58.29 0 0 0 5.149-4.264 58.609 58.609 0 0 0 3.143-3.162 57.005 57.005 0 0 0 2.889-3.396 60.93 60.93 0 0 0 1.344-1.779 59.127 59.127 0 0 0 2.476-3.708c.389-.633.765-1.274 1.128-1.923a57.878 57.878 0 0 0 2.928-6.01ZM508.805 95.121c40.904-1.562 110.766 48.381 141.954 73.631-5.948 4.492-11.885 9.332-16.497 15.237-1.733 2.218-4.048 7.741-6.269 8.904l-.801-.425c-34.261-28.035-98.664-75.66-144.047-74.124 5.422-6.662 13.172-17.588 20.491-21.798 1.618-.931 3.347-1.175 5.169-1.425Zm172.114 71.1c14.647.18 27.751 3.755 38.657 13.992 10.926 10.254 17.036 22.967 17.462 38.026.416 14.706-4.58 28.438-14.819 39.099a53.564 53.564 0 0 1-10.229 8.234 53.23 53.23 0 0 1-4.603 2.553 54.103 54.103 0 0 1-7.318 2.955 54.09 54.09 0 0 1-7.671 1.851 53.077 53.077 0 0 1-5.23.6 53.71 53.71 0 0 1-2.63.107c-13.386-.021-25.762-3.765-36.17-12.37-10.964-9.065-18.762-22.614-20.084-36.892-1.303-14.079 4.033-28.958 13.126-39.659 9.857-11.599 24.63-17.314 39.509-18.496Z"/>
    <path fill="#000" d="M677.093 187.114c8.368-.871 16.531.388 23.83 4.741 7.445 4.44 12.967 12.152 14.989 20.563a32.526 32.526 0 0 1 .479 13.004 32.324 32.324 0 0 1-1.164 4.768 32.5 32.5 0 0 1-2.638 5.984c-.269.475-.55.943-.843 1.404-5.159 8.193-12.99 13.124-22.285 15.306-8.79 1.684-18.646-.339-26.122-5.243-7.336-4.811-12.261-12.481-14.017-21.04-1.801-8.774.242-18.214 5.204-25.645 5.329-7.983 13.359-12.027 22.567-13.842Z"/>
    <path fill="#FEFEFE" d="M680.695 202.592c3.907-.219 7.244.072 10.856 1.811 4.12 1.983 7.109 5.516 8.568 9.83 1.648 4.872 1.528 10.188-.993 14.738-2.892 5.219-7.388 7.474-12.885 9.01-4.738.401-9.095-.06-13.227-2.627a17.382 17.382 0 0 1-2.809-2.124 17.463 17.463 0 0 1-2.331-2.641 17.609 17.609 0 0 1-2.873-6.392c-1.022-4.621-.114-9.876 2.482-13.841 3.194-4.878 7.794-6.586 13.212-7.764ZM557.262 312.817c2.343 1.466 5.035 2.459 7.565 3.566-8.162 9.345-17.532 17.978-26.259 26.822a825.589 825.589 0 0 0-28.849 31.044 14338.396 14338.396 0 0 0-110.308 125.382l-55.347 65.604a2717.684 2717.684 0 0 1-35.077 40.52c-6.828 7.687-14.168 15.134-20.751 23.009-4.516 5.4-6.75 12.065-5.968 19.126.748 6.756 4.436 12.65 9.64 16.902 6.342 5.182 14.189 7.654 22.371 6.793 7.182-.756 13.452-3.976 18.759-8.802 5.83-5.301 10.824-11.883 16.2-17.672a4254.117 4254.117 0 0 0 41.042-44.829c25.397-27.827 51.343-55.189 76.515-83.219 17.134-19.08 33.601-38.755 50.561-57.987a3849.143 3849.143 0 0 1 59.406-65.15c11.147-11.838 23.461-23.181 33.639-35.824.927 1.994 2.041 3.915 3.085 5.851-4.767 6.993-11.143 13.332-16.791 19.627-15.095 16.821-30.965 32.925-45.977 49.81-23.627 26.576-47.787 52.791-70.398 80.246-17.7 21.492-34.168 43.861-50.831 66.148-28.053 37.52-52.148 70.951-71.895 113.885-6.161 13.867-14.916 37.653-14.905 52.675.008 10.294 7.062 15.834 13.754 22.462-7.493 7.742-14.349 16.072-21.894 23.752 1.007-7.059 1.974-14.182 2.252-21.311.361-9.25.047-18.686 1.033-27.894 1.4-13.077 5.34-26.549 9.843-38.884 10.298-28.203 25.954-54.518 42.623-79.375 4.631-6.906 31.418-42.913 31.93-46.167l-.926-.207c-2.828.971-4.829 2.649-6.999 4.637-8.709 7.977-16.426 17.372-24.419 26.068-12.466 13.562-25.158 26.904-37.52 40.569-5.761 6.369-11.264 14.093-17.982 19.44-7.613 6.059-18.272 9.573-27.999 8.348-9.979-1.257-19.332-6.32-25.365-14.419-5.277-7.084-7.601-17.49-4.668-25.914 3.378-9.702 12.95-18.168 19.564-25.78a1892.581 1892.581 0 0 1 27.118-30.826c7.863-8.661 16.258-17.172 23.331-26.487.689-.907 1.307-1.764 1.38-2.944.051-.814-.465-1.135-.938-1.731-2.609.017-6.426 4.247-8.372 5.957-30.837 27.109-65.064 52.264-103.577 67.223-3.572 1.387-7.201 2.93-10.892 3.962-5.491 1.535-21.884 4.306-25.651 6.711-1.275 1.715-1.355 3.616-1.646 5.672-8.74.404-16.947 1.863-25.501 3.613.708-4.077 1.019-8.968 2.439-12.847 1.37-3.743 3.421-5.121 6.937-6.73 6.811 1.368 13.527 1.649 20.455 1.202 93.893-6.053 215.112-155.182 275.536-223.336 26.464-29.848 54.3-58.422 80.727-88.291Z"/>
    <path fill="#FEFEFE" d="M484.269 412.835c2.611 1.502 8.869 13.393 11.933 16.686 6.569 7.062 15.534 12.597 23.922 17.275-36.613 45.071-77.241 86.765-116.264 129.691l-34.676 37.962a2253.974 2253.974 0 0 1-23.594 26.052c-7.068 7.688-14.034 16.63-23.108 22.009-3.393 1.591-6.888 2.79-10.661 2.958-5.916.264-12.47-1.958-16.83-5.992-4.092-3.787-6.783-9.041-6.748-14.682.031-4.832 1.958-7.625 4.694-11.357 5.938-8.101 13.672-15.503 20.302-23.12a5784.26 5784.26 0 0 0 42.653-49.625c29.624-34.893 58.895-70.006 89.153-104.361 12.873-14.614 25.57-29.603 39.224-43.496Zm-72.233-210.213c6.441.313 13.282 2.524 19.232 4.932 11.344 4.593 22.266 10.593 32.909 16.596 41.208 23.243 79.023 52.306 115.035 82.846a932.823 932.823 0 0 1 71.278 66.33 545.889 545.889 0 0 1 50.542 61.241c8.831 12.478 17.725 25.628 23.595 39.811 1.191 2.876 3.815 8.581 2.151 11.523-.629 1.113-1.833 1.725-3.034 2.008-13.63 3.214-54.676-20.321-66.988-27.842-20.503-12.932-50.837-31.707-68.066-47.889 5.888-5.951 12.383-12.73 19.193-17.543 5.861-.649 19.303 1.34 23.144-1.205 1.532-1.014 2.362-2.759 2.599-4.533 1.201-9.003-13.982-30.698-19.686-38.292-7.26-9.664-15.533-19.155-24.778-26.948-14.131-11.911-41.25-25.798-59.474-28.384-1.74.728-3.577 1.376-4.779 2.906-3.833 4.877-.884 14.702-.385 20.403.868 9.894-4.652 14.929-10.639 21.913-27.792-22.986-91.811-87.615-105.233-120.393-1.602-3.911-4.051-10.176-1.881-14.206 1.101-2.045 3.222-2.597 5.265-3.274Zm166.65-187.035a35.45 35.45 0 0 1 1.893-.129c15.006-.6 31.059 5.993 44.654 11.93 58.065 25.357 114.035 68.157 160.319 111.103 38.547 35.768 70.051 70.667 97.931 115.438 6.621 10.631 15.538 23.371 15.908 36.307.091 3.176-.489 5.745-2.079 8.521-4.028 7.029-22.551 24.948-29.147 31.955-.371-2.197-.574-4.429-.825-6.643-.298-1.724-.569-3.459-.94-5.17-2.327-10.731-10.388-21.393-16.078-30.662-25.295-41.197-59.638-76.956-94.564-110.054-21.79-20.65-44.65-40.845-68.56-59.009a754.222 754.222 0 0 0-46.515-32.04c-20.282-12.975-57.042-34.27-80.982-36.555-6.267-.598-12.021.434-18.126 1.776 3.842-4.855 8.277-9.348 12.438-13.935a739.812 739.812 0 0 0 18.464-21.028c2.043-.791 4.085-1.294 6.209-1.805Z"/>
    <path fill="#FEFEFE" d="M448.214 161.633a43.48 43.48 0 0 1 11.157 1.091c18.636 4.213 48.527 21.39 65.123 31.819 7.825 4.918 15.755 9.728 23.372 14.963 20.709 14.233 40.261 29.811 59.576 45.863 53.706 44.632 106.259 95.287 143.664 154.689 3.704 5.882 17.095 27.856 15.454 33.639-1.367 4.819-27.786 32.998-32.571 35.426-7.476-24.346-29.75-53.775-45.883-73.233a778.43 778.43 0 0 0-60.794-65.67c-48.27-46.118-110.101-96.049-169.023-127.636-13.442-7.206-28.264-15.463-43.651-16.896 8.363-8.25 24.58-29.737 33.576-34.055Zm-244.821 484.6c29.663.486 56.239 9.032 78.866 28.567a127.096 127.096 0 0 1 4.774 4.271 127.359 127.359 0 0 1 4.559 4.501 130.897 130.897 0 0 1 4.333 4.718 130.321 130.321 0 0 1 9.774 12.677 128.485 128.485 0 0 1 3.461 5.39 129.494 129.494 0 0 1 4.686 8.388 129.595 129.595 0 0 1 7.461 17.694 130.329 130.329 0 0 1 2.733 9.211 131.84 131.84 0 0 1 1.443 6.242 129.155 129.155 0 0 1 1.585 9.476 130.65 130.65 0 0 1 .667 6.371c2.163 30.259-9.733 61.351-29.526 83.947-17.895 20.431-43.741 36.203-70.404 42.097-7.112 1.573-14.213 2.152-21.459 2.617-33.219.349-61.862-9.69-86.336-32.56-24.322-22.727-38.572-53.258-39.572-86.683a121.278 121.278 0 0 1 .052-8.974 120.399 120.399 0 0 1 7.882-37.919 122.184 122.184 0 0 1 2.284-5.53 119.398 119.398 0 0 1 2.557-5.411 124.563 124.563 0 0 1 2.822-5.276 122.076 122.076 0 0 1 6.415-10.099 119.311 119.311 0 0 1 3.576-4.797 120.228 120.228 0 0 1 7.846-9.032c24.022-25.177 54.76-39.102 89.521-39.886Z"/>
    <path fill="#000" d="M194.918 655.208c26.92-2.612 56.177 6.003 77.384 22.777 24.591 19.45 42.104 47.754 45.729 79.156 3.617 31.331-5.712 59.057-25.236 83.445-20.454 25.55-47.914 39.675-80.176 43.345-30.069 1.955-57.842-5.448-81.329-24.823-22.989-18.962-38.8-46.515-41.588-76.357-2.945-31.507 5.859-61.711 26.189-86.22a120.167 120.167 0 0 1 3.788-4.281 113.265 113.265 0 0 1 3.991-4.092 113.36 113.36 0 0 1 4.185-3.894 120.705 120.705 0 0 1 4.37-3.685 115.373 115.373 0 0 1 4.544-3.468 115.398 115.398 0 0 1 7.118-4.779 116.785 116.785 0 0 1 9.996-5.54 117.15 117.15 0 0 1 18.615-7.272 114.6 114.6 0 0 1 2.751-.776 114.597 114.597 0 0 1 5.554-1.351 115.708 115.708 0 0 1 5.613-1.08 117.472 117.472 0 0 1 8.502-1.105Z"/>
    <path fill="#FEFEFE" d="M200.775 660.214c25.944-1.963 53.028 8.99 72.569 25.527a110.113 110.113 0 0 1 8.167 7.52 110.097 110.097 0 0 1 3.794 4.055 112.812 112.812 0 0 1 5.3 6.424 111.705 111.705 0 0 1 19.336 39.673 113.946 113.946 0 0 1 1.264 5.407 110.141 110.141 0 0 1 .993 5.464 110.103 110.103 0 0 1 .978 8.27c2.411 30.125-8.928 57.093-28.413 79.628-19.023 21.999-47.441 34.68-76.139 36.804-27.01 1.883-55.343-7.774-75.866-25.425a103.703 103.703 0 0 1-2.033-1.776 104.056 104.056 0 0 1-3.932-3.7 110.764 110.764 0 0 1-3.744-3.889 110.357 110.357 0 0 1-5.243-6.17 106.567 106.567 0 0 1-3.236-4.322 109.367 109.367 0 0 1-8.37-13.849 108.706 108.706 0 0 1-7.05-17.508 109.345 109.345 0 0 1-4.226-21.143c-.089-.896-.166-1.793-.232-2.69-2.148-30.876 8.556-59.299 28.904-82.406 19.41-22.043 48.276-34.112 77.179-35.894Z"/>
    <path fill="#000" d="M195.755 683.694c.26-.035.518-.081.779-.104 21.66-1.885 44.914 5.315 61.834 18.864a90.919 90.919 0 0 1 3.279 2.796 87.453 87.453 0 0 1 4.653 4.486 87.492 87.492 0 0 1 6.987 8.193 89.963 89.963 0 0 1 2.506 3.505 88.63 88.63 0 0 1 4.486 7.357 91.044 91.044 0 0 1 1.968 3.834 86.121 86.121 0 0 1 2.595 5.919 85.833 85.833 0 0 1 2.156 6.093 85.956 85.956 0 0 1 1.187 4.142 88.642 88.642 0 0 1 2.331 12.706c2.399 23.169-4.499 45.228-19.218 63.231-14.519 17.757-37.001 29.382-59.677 31.575-.219.038-.437.089-.658.115-21.199 2.454-44.479-4.918-61.032-18.123a89.385 89.385 0 0 1-4.975-4.267 93.815 93.815 0 0 1-1.586-1.503 93.775 93.775 0 0 1-1.548-1.542 86.317 86.317 0 0 1-4.407-4.851 86.37 86.37 0 0 1-2.732-3.411 88.339 88.339 0 0 1-4.939-7.207 86.714 86.714 0 0 1-2.194-3.779 88.985 88.985 0 0 1-2.933-5.861 88.416 88.416 0 0 1-5.09-14.404 86.27 86.27 0 0 1-1.4-6.403 87.201 87.201 0 0 1-.919-6.489c-2.476-23.523 5.095-45.498 19.966-63.632a88.606 88.606 0 0 1 5.742-6.278 92.76 92.76 0 0 1 3.093-2.923 89.13 89.13 0 0 1 4.896-4.093 87.774 87.774 0 0 1 16.288-10.001 84.418 84.418 0 0 1 3.891-1.723 90.143 90.143 0 0 1 5.981-2.227 88.437 88.437 0 0 1 10.277-2.725 91.668 91.668 0 0 1 4.191-.737 87.514 87.514 0 0 1 4.222-.533Z"/>
    <path fill="#FEFEFE" d="M202.197 688.71a82.579 82.579 0 0 1 23.071 2.898 83.011 83.011 0 0 1 11.003 3.846 82.845 82.845 0 0 1 16.794 9.705 83.369 83.369 0 0 1 6.003 4.939c15.473 14.052 25.64 34.952 26.493 55.872.894 21.934-5.993 42.092-21.021 58.297a86.2 86.2 0 0 1-2.845 2.957 86.162 86.162 0 0 1-2.985 2.814 82.398 82.398 0 0 1-3.119 2.666 81.613 81.613 0 0 1-4.912 3.706 85.743 85.743 0 0 1-6.946 4.365 84.536 84.536 0 0 1-5.47 2.818 84.824 84.824 0 0 1-7.586 3.123 82.155 82.155 0 0 1-5.87 1.849 85.03 85.03 0 0 1-8.005 1.789 81.312 81.312 0 0 1-4.059.601 87.014 87.014 0 0 1-4.083.402c-.682.05-1.365.092-2.048.126-20.864.342-40.552-6.305-56.458-19.943-16.118-13.82-26.032-34.521-27.506-55.611-1.565-22.384 6.249-43.508 21.018-60.232 15.246-17.263 35.968-25.505 58.531-26.987Z"/>
    <path fill="#000" d="M202.551 696.726c19.144.439 35.05 5.514 49.767 18.103 15.081 12.9 23.806 30.176 25.192 50a73.92 73.92 0 0 1-.079 11.114 74.169 74.169 0 0 1-3.791 18.099 74.34 74.34 0 0 1-10.25 19.654 74.867 74.867 0 0 1-4.662 5.764c-13.833 15.657-32.094 23.736-52.751 24.981-18.922-.198-37.444-6.265-51.631-19.039-13.976-12.585-23.593-31.747-24.473-50.62a76.833 76.833 0 0 1 .08-7.372 76.639 76.639 0 0 1 5.801-25.026 76.698 76.698 0 0 1 4.993-9.861 77.002 77.002 0 0 1 4.096-6.129 76.942 76.942 0 0 1 4.667-5.706c14.111-15.356 32.452-23.089 53.041-23.962Z"/>
    <path fill="#FEFEFE" d="M201.791 706.207c.244-.027.488-.057.733-.08 15.196-1.422 32.221 6.166 43.588 15.77a63.089 63.089 0 0 1 4.53 4.249 64.04 64.04 0 0 1 4.092 4.672 63.601 63.601 0 0 1 3.613 5.052 62.953 62.953 0 0 1 4.447 8.181 61.887 61.887 0 0 1 2.275 5.78 62.402 62.402 0 0 1 1.697 5.974 63.114 63.114 0 0 1 1.427 9.202c1.394 17.263-4.189 33.806-15.41 46.978-12.14 14.248-27.201 21.466-45.754 22.877a65.056 65.056 0 0 1-5.991-.035 65.036 65.036 0 0 1-5.962-.582 65.475 65.475 0 0 1-8.783-1.883 66.623 66.623 0 0 1-2.86-.893 67.1 67.1 0 0 1-5.583-2.173 64.915 64.915 0 0 1-5.361-2.672 66.108 66.108 0 0 1-5.096-3.15 66.213 66.213 0 0 1-4.787-3.602c-12.728-10.542-21.284-27.233-22.725-43.644-1.428-16.27 3.38-33.68 14.013-46.225 12.698-14.982 28.511-22.155 47.897-23.796Z"/>
  </g>
  <defs>
    <clipPath id="a">
      <path fill="#fff" d="M0 0h928v929H0z"/>
    </clipPath>
  </defs>
</svg>
